<mxfile host="65bd71144e">
    <diagram id="C5RBs43oDa-KdzZeNtuy" name="Page-1">
        <mxGraphModel dx="4835" dy="2252" grid="1" gridSize="10" guides="1" tooltips="1" connect="1" arrows="1" fold="1" page="1" pageScale="1" pageWidth="827" pageHeight="1169" math="0" shadow="0">
            <root>
                <mxCell id="WIyWlLk6GJQsqaUBKTNV-0"/>
                <mxCell id="WIyWlLk6GJQsqaUBKTNV-1" parent="WIyWlLk6GJQsqaUBKTNV-0"/>
                <mxCell id="M7CGMbNuYNeq0SnUNNgH-6" value="ทบทวนสัญลักษณ์" style="swimlane;fontFamily=Sarabun;fontSource=https%3A%2F%2Ffonts.googleapis.com%2Fcss%3Ffamily%3DSarabun;" parent="WIyWlLk6GJQsqaUBKTNV-1" vertex="1">
                    <mxGeometry x="-720" y="20" width="650" height="290" as="geometry"/>
                </mxCell>
                <mxCell id="M7CGMbNuYNeq0SnUNNgH-2" value="&lt;font data-font-src=&quot;https://fonts.googleapis.com/css?family=Sarabun&quot; face=&quot;Sarabun&quot;&gt;เริ่มต้น&lt;/font&gt;" style="ellipse;whiteSpace=wrap;html=1;" parent="M7CGMbNuYNeq0SnUNNgH-6" vertex="1">
                    <mxGeometry x="20" y="40" width="130" height="30" as="geometry"/>
                </mxCell>
                <mxCell id="M7CGMbNuYNeq0SnUNNgH-5" value="" style="endArrow=classic;html=1;rounded=0;" parent="M7CGMbNuYNeq0SnUNNgH-6" edge="1">
                    <mxGeometry width="50" height="50" relative="1" as="geometry">
                        <mxPoint x="84.5" y="70" as="sourcePoint"/>
                        <mxPoint x="84.5" y="120" as="targetPoint"/>
                    </mxGeometry>
                </mxCell>
                <mxCell id="M7CGMbNuYNeq0SnUNNgH-3" value="&lt;font face=&quot;Sarabun&quot;&gt;สิ้นสุด&lt;/font&gt;" style="ellipse;whiteSpace=wrap;html=1;" parent="M7CGMbNuYNeq0SnUNNgH-6" vertex="1">
                    <mxGeometry x="150" y="90" width="130" height="30" as="geometry"/>
                </mxCell>
                <mxCell id="M7CGMbNuYNeq0SnUNNgH-4" value="" style="endArrow=classic;html=1;rounded=0;" parent="M7CGMbNuYNeq0SnUNNgH-6" edge="1">
                    <mxGeometry width="50" height="50" relative="1" as="geometry">
                        <mxPoint x="214.5" y="40" as="sourcePoint"/>
                        <mxPoint x="214.5" y="90" as="targetPoint"/>
                    </mxGeometry>
                </mxCell>
                <mxCell id="mvioNwK95yMqdUQ73LqQ-0" value="กระบวนการ" style="rounded=0;whiteSpace=wrap;html=1;fontFamily=Sarabun;fontSource=https%3A%2F%2Ffonts.googleapis.com%2Fcss%3Ffamily%3DSarabun;" parent="M7CGMbNuYNeq0SnUNNgH-6" vertex="1">
                    <mxGeometry x="320" y="70" width="120" height="30" as="geometry"/>
                </mxCell>
                <mxCell id="mvioNwK95yMqdUQ73LqQ-1" value="" style="endArrow=classic;html=1;rounded=0;" parent="M7CGMbNuYNeq0SnUNNgH-6" edge="1">
                    <mxGeometry width="50" height="50" relative="1" as="geometry">
                        <mxPoint x="379" y="40" as="sourcePoint"/>
                        <mxPoint x="379.5" y="70" as="targetPoint"/>
                    </mxGeometry>
                </mxCell>
                <mxCell id="mvioNwK95yMqdUQ73LqQ-2" value="" style="endArrow=classic;html=1;rounded=0;" parent="M7CGMbNuYNeq0SnUNNgH-6" edge="1">
                    <mxGeometry width="50" height="50" relative="1" as="geometry">
                        <mxPoint x="379.75" y="100" as="sourcePoint"/>
                        <mxPoint x="380.25" y="130" as="targetPoint"/>
                    </mxGeometry>
                </mxCell>
                <mxCell id="mvioNwK95yMqdUQ73LqQ-3" value="ประโยคเงื่อนไข" style="rhombus;whiteSpace=wrap;html=1;fontFamily=Sarabun;fontSource=https%3A%2F%2Ffonts.googleapis.com%2Fcss%3Ffamily%3DSarabun;" parent="M7CGMbNuYNeq0SnUNNgH-6" vertex="1">
                    <mxGeometry x="490" y="60" width="100" height="60" as="geometry"/>
                </mxCell>
                <mxCell id="mvioNwK95yMqdUQ73LqQ-4" value="" style="endArrow=classic;html=1;rounded=0;" parent="M7CGMbNuYNeq0SnUNNgH-6" edge="1">
                    <mxGeometry width="50" height="50" relative="1" as="geometry">
                        <mxPoint x="539.71" y="30" as="sourcePoint"/>
                        <mxPoint x="540.21" y="60" as="targetPoint"/>
                    </mxGeometry>
                </mxCell>
                <mxCell id="mvioNwK95yMqdUQ73LqQ-5" value="" style="endArrow=classic;html=1;rounded=0;" parent="M7CGMbNuYNeq0SnUNNgH-6" edge="1">
                    <mxGeometry width="50" height="50" relative="1" as="geometry">
                        <mxPoint x="539.71" y="120" as="sourcePoint"/>
                        <mxPoint x="540" y="175" as="targetPoint"/>
                    </mxGeometry>
                </mxCell>
                <mxCell id="mvioNwK95yMqdUQ73LqQ-7" value="จริง" style="edgeLabel;html=1;align=center;verticalAlign=middle;resizable=0;points=[];fontFamily=Sarabun;fontSource=https%3A%2F%2Ffonts.googleapis.com%2Fcss%3Ffamily%3DSarabun;" parent="mvioNwK95yMqdUQ73LqQ-5" vertex="1" connectable="0">
                    <mxGeometry x="-0.4142" y="-1" relative="1" as="geometry">
                        <mxPoint as="offset"/>
                    </mxGeometry>
                </mxCell>
                <mxCell id="mvioNwK95yMqdUQ73LqQ-6" value="" style="endArrow=classic;html=1;rounded=0;exitX=1;exitY=0.5;exitDx=0;exitDy=0;" parent="M7CGMbNuYNeq0SnUNNgH-6" source="mvioNwK95yMqdUQ73LqQ-3" edge="1">
                    <mxGeometry width="50" height="50" relative="1" as="geometry">
                        <mxPoint x="620" y="95" as="sourcePoint"/>
                        <mxPoint x="610" y="175" as="targetPoint"/>
                        <Array as="points">
                            <mxPoint x="610" y="90"/>
                        </Array>
                    </mxGeometry>
                </mxCell>
                <mxCell id="mvioNwK95yMqdUQ73LqQ-8" value="&lt;font data-font-src=&quot;https://fonts.googleapis.com/css?family=Sarabun&quot; face=&quot;Sarabun&quot;&gt;เท็จ&lt;/font&gt;" style="edgeLabel;html=1;align=center;verticalAlign=middle;resizable=0;points=[];" parent="mvioNwK95yMqdUQ73LqQ-6" vertex="1" connectable="0">
                    <mxGeometry x="-0.0019" y="-2" relative="1" as="geometry">
                        <mxPoint as="offset"/>
                    </mxGeometry>
                </mxCell>
                <mxCell id="mvioNwK95yMqdUQ73LqQ-9" value="&lt;font data-font-src=&quot;https://fonts.googleapis.com/css?family=Sarabun&quot; face=&quot;Sarabun&quot;&gt;ฟังก์ชัน/โมดูล&lt;/font&gt;" style="shape=process;whiteSpace=wrap;html=1;backgroundOutline=1;" parent="M7CGMbNuYNeq0SnUNNgH-6" vertex="1">
                    <mxGeometry x="25" y="180" width="120" height="30" as="geometry"/>
                </mxCell>
                <mxCell id="mvioNwK95yMqdUQ73LqQ-11" value="" style="endArrow=classic;html=1;rounded=0;" parent="M7CGMbNuYNeq0SnUNNgH-6" edge="1">
                    <mxGeometry width="50" height="50" relative="1" as="geometry">
                        <mxPoint x="84.70999999999998" y="150" as="sourcePoint"/>
                        <mxPoint x="85.20999999999998" y="180" as="targetPoint"/>
                    </mxGeometry>
                </mxCell>
                <mxCell id="mvioNwK95yMqdUQ73LqQ-12" value="" style="endArrow=classic;html=1;rounded=0;" parent="M7CGMbNuYNeq0SnUNNgH-6" edge="1">
                    <mxGeometry width="50" height="50" relative="1" as="geometry">
                        <mxPoint x="84.70999999999998" y="210" as="sourcePoint"/>
                        <mxPoint x="85.20999999999998" y="240" as="targetPoint"/>
                    </mxGeometry>
                </mxCell>
                <mxCell id="mvioNwK95yMqdUQ73LqQ-13" value="" style="strokeWidth=2;html=1;shape=mxgraph.flowchart.start_2;whiteSpace=wrap;" parent="M7CGMbNuYNeq0SnUNNgH-6" vertex="1">
                    <mxGeometry x="205" y="185" width="20" height="20" as="geometry"/>
                </mxCell>
                <mxCell id="mvioNwK95yMqdUQ73LqQ-16" value="" style="endArrow=classic;html=1;rounded=0;" parent="M7CGMbNuYNeq0SnUNNgH-6" edge="1">
                    <mxGeometry width="50" height="50" relative="1" as="geometry">
                        <mxPoint x="214.70999999999998" y="155" as="sourcePoint"/>
                        <mxPoint x="215.20999999999998" y="185" as="targetPoint"/>
                    </mxGeometry>
                </mxCell>
                <mxCell id="mvioNwK95yMqdUQ73LqQ-17" value="" style="endArrow=classic;html=1;rounded=0;entryX=0;entryY=0.5;entryDx=0;entryDy=0;entryPerimeter=0;" parent="M7CGMbNuYNeq0SnUNNgH-6" target="mvioNwK95yMqdUQ73LqQ-13" edge="1">
                    <mxGeometry width="50" height="50" relative="1" as="geometry">
                        <mxPoint x="189.99999999999997" y="155" as="sourcePoint"/>
                        <mxPoint x="190.49999999999997" y="185" as="targetPoint"/>
                        <Array as="points">
                            <mxPoint x="190" y="180"/>
                        </Array>
                    </mxGeometry>
                </mxCell>
                <mxCell id="mvioNwK95yMqdUQ73LqQ-18" value="" style="endArrow=classic;html=1;rounded=0;entryX=1;entryY=0.5;entryDx=0;entryDy=0;entryPerimeter=0;" parent="M7CGMbNuYNeq0SnUNNgH-6" target="mvioNwK95yMqdUQ73LqQ-13" edge="1">
                    <mxGeometry width="50" height="50" relative="1" as="geometry">
                        <mxPoint x="239.99999999999997" y="155" as="sourcePoint"/>
                        <mxPoint x="240.49999999999997" y="185" as="targetPoint"/>
                        <Array as="points">
                            <mxPoint x="240" y="180"/>
                        </Array>
                    </mxGeometry>
                </mxCell>
                <mxCell id="mvioNwK95yMqdUQ73LqQ-19" value="" style="endArrow=classic;html=1;rounded=0;" parent="M7CGMbNuYNeq0SnUNNgH-6" edge="1">
                    <mxGeometry width="50" height="50" relative="1" as="geometry">
                        <mxPoint x="214.70999999999998" y="205" as="sourcePoint"/>
                        <mxPoint x="215.20999999999998" y="235" as="targetPoint"/>
                    </mxGeometry>
                </mxCell>
                <mxCell id="mvioNwK95yMqdUQ73LqQ-20" value="&lt;font data-font-src=&quot;https://fonts.googleapis.com/css?family=Sarabun&quot; face=&quot;Sarabun&quot;&gt;ตัวเชื่อม&lt;/font&gt;" style="text;html=1;align=center;verticalAlign=middle;resizable=0;points=[];autosize=1;strokeColor=none;fillColor=none;" parent="M7CGMbNuYNeq0SnUNNgH-6" vertex="1">
                    <mxGeometry x="220" y="190" width="60" height="30" as="geometry"/>
                </mxCell>
                <mxCell id="mvioNwK95yMqdUQ73LqQ-25" value="" style="endArrow=classic;html=1;rounded=0;" parent="M7CGMbNuYNeq0SnUNNgH-6" edge="1">
                    <mxGeometry width="50" height="50" relative="1" as="geometry">
                        <mxPoint x="353.71" y="165" as="sourcePoint"/>
                        <mxPoint x="354.21" y="195" as="targetPoint"/>
                    </mxGeometry>
                </mxCell>
                <mxCell id="mvioNwK95yMqdUQ73LqQ-21" value="" style="verticalLabelPosition=bottom;verticalAlign=top;html=1;shape=offPageConnector;rounded=0;size=0.5;" parent="M7CGMbNuYNeq0SnUNNgH-6" vertex="1">
                    <mxGeometry x="339" y="195" width="30" height="30" as="geometry"/>
                </mxCell>
                <mxCell id="mvioNwK95yMqdUQ73LqQ-26" value="" style="endArrow=classic;html=1;rounded=0;" parent="M7CGMbNuYNeq0SnUNNgH-6" edge="1">
                    <mxGeometry width="50" height="50" relative="1" as="geometry">
                        <mxPoint x="405.71" y="195" as="sourcePoint"/>
                        <mxPoint x="406.21" y="225" as="targetPoint"/>
                    </mxGeometry>
                </mxCell>
                <mxCell id="mvioNwK95yMqdUQ73LqQ-27" value="" style="verticalLabelPosition=bottom;verticalAlign=top;html=1;shape=offPageConnector;rounded=0;size=0.5;" parent="M7CGMbNuYNeq0SnUNNgH-6" vertex="1">
                    <mxGeometry x="391" y="165" width="30" height="30" as="geometry"/>
                </mxCell>
                <mxCell id="mvioNwK95yMqdUQ73LqQ-28" value="หน้าต่อไป" style="text;html=1;align=center;verticalAlign=middle;resizable=0;points=[];autosize=1;strokeColor=none;fillColor=none;fontFamily=Sarabun;fontSource=https%3A%2F%2Ffonts.googleapis.com%2Fcss%3Ffamily%3DSarabun;" parent="M7CGMbNuYNeq0SnUNNgH-6" vertex="1">
                    <mxGeometry x="345" y="220" width="70" height="30" as="geometry"/>
                </mxCell>
                <mxCell id="mvioNwK95yMqdUQ73LqQ-29" value="ก" style="text;html=1;align=center;verticalAlign=middle;resizable=0;points=[];autosize=1;strokeColor=none;fillColor=none;fontFamily=Sarabun;fontSource=https%3A%2F%2Ffonts.googleapis.com%2Fcss%3Ffamily%3DSarabun;" parent="M7CGMbNuYNeq0SnUNNgH-6" vertex="1">
                    <mxGeometry x="339" y="190" width="30" height="30" as="geometry"/>
                </mxCell>
                <mxCell id="mvioNwK95yMqdUQ73LqQ-30" value="ก" style="text;html=1;align=center;verticalAlign=middle;resizable=0;points=[];autosize=1;strokeColor=none;fillColor=none;fontFamily=Sarabun;fontSource=https%3A%2F%2Ffonts.googleapis.com%2Fcss%3Ffamily%3DSarabun;" parent="M7CGMbNuYNeq0SnUNNgH-6" vertex="1">
                    <mxGeometry x="391" y="160" width="30" height="30" as="geometry"/>
                </mxCell>
                <mxCell id="mvioNwK95yMqdUQ73LqQ-32" value="แสดงผล/รับค่า" style="shape=parallelogram;perimeter=parallelogramPerimeter;whiteSpace=wrap;html=1;fixedSize=1;fontFamily=Sarabun;fontSource=https%3A%2F%2Ffonts.googleapis.com%2Fcss%3Ffamily%3DSarabun;" parent="M7CGMbNuYNeq0SnUNNgH-6" vertex="1">
                    <mxGeometry x="450" y="210" width="120" height="30" as="geometry"/>
                </mxCell>
                <mxCell id="mvioNwK95yMqdUQ73LqQ-33" value="" style="endArrow=classic;html=1;rounded=0;" parent="M7CGMbNuYNeq0SnUNNgH-6" edge="1">
                    <mxGeometry width="50" height="50" relative="1" as="geometry">
                        <mxPoint x="509.71" y="180" as="sourcePoint"/>
                        <mxPoint x="510.21" y="210" as="targetPoint"/>
                    </mxGeometry>
                </mxCell>
                <mxCell id="mvioNwK95yMqdUQ73LqQ-34" value="" style="endArrow=classic;html=1;rounded=0;" parent="M7CGMbNuYNeq0SnUNNgH-6" edge="1">
                    <mxGeometry width="50" height="50" relative="1" as="geometry">
                        <mxPoint x="509.71" y="240" as="sourcePoint"/>
                        <mxPoint x="510.21" y="270" as="targetPoint"/>
                    </mxGeometry>
                </mxCell>
                <mxCell id="mvioNwK95yMqdUQ73LqQ-36" value="ห" style="swimlane;fontFamily=Sarabun;fontSource=https%3A%2F%2Ffonts.googleapis.com%2Fcss%3Ffamily%3DSarabun;fontSize=14;" parent="WIyWlLk6GJQsqaUBKTNV-1" vertex="1">
                    <mxGeometry x="-790" y="620" width="1540" height="3300" as="geometry"/>
                </mxCell>
                <mxCell id="5" value="" style="edgeStyle=none;html=1;startArrow=none;" edge="1" parent="mvioNwK95yMqdUQ73LqQ-36" source="199" target="4">
                    <mxGeometry relative="1" as="geometry"/>
                </mxCell>
                <mxCell id="mvioNwK95yMqdUQ73LqQ-35" value="&lt;font data-font-src=&quot;https://fonts.googleapis.com/css?family=Sarabun&quot; face=&quot;Sarabun&quot;&gt;เริ่มต้น&lt;/font&gt;" style="ellipse;whiteSpace=wrap;html=1;" parent="mvioNwK95yMqdUQ73LqQ-36" vertex="1">
                    <mxGeometry x="415" y="50" width="130" height="30" as="geometry"/>
                </mxCell>
                <mxCell id="mvioNwK95yMqdUQ73LqQ-69" value="&lt;font face=&quot;Sarabun&quot;&gt;สิ้นสุด&lt;/font&gt;" style="ellipse;whiteSpace=wrap;html=1;" parent="mvioNwK95yMqdUQ73LqQ-36" vertex="1">
                    <mxGeometry x="565" y="3210" width="130" height="30" as="geometry"/>
                </mxCell>
                <mxCell id="53" value="" style="edgeStyle=none;html=1;fontSize=20;" edge="1" parent="mvioNwK95yMqdUQ73LqQ-36" source="4" target="52">
                    <mxGeometry relative="1" as="geometry"/>
                </mxCell>
                <mxCell id="4" value="เลือกสินค้า" style="shape=parallelogram;perimeter=parallelogramPerimeter;whiteSpace=wrap;html=1;fixedSize=1;" vertex="1" parent="mvioNwK95yMqdUQ73LqQ-36">
                    <mxGeometry x="405" y="120" width="150" height="60" as="geometry"/>
                </mxCell>
                <mxCell id="52" value="ประเภทสินค้า" style="rhombus;whiteSpace=wrap;html=1;" vertex="1" parent="mvioNwK95yMqdUQ73LqQ-36">
                    <mxGeometry x="440" y="210" width="80" height="80" as="geometry"/>
                </mxCell>
                <mxCell id="45" style="edgeStyle=none;html=1;exitX=0;exitY=0.5;exitDx=0;exitDy=0;fontSize=20;exitPerimeter=0;entryX=0.5;entryY=0;entryDx=0;entryDy=0;" edge="1" parent="mvioNwK95yMqdUQ73LqQ-36" source="52" target="54">
                    <mxGeometry relative="1" as="geometry">
                        <mxPoint x="240" y="310" as="targetPoint"/>
                        <mxPoint x="435" y="250" as="sourcePoint"/>
                        <Array as="points">
                            <mxPoint x="240" y="250"/>
                        </Array>
                    </mxGeometry>
                </mxCell>
                <mxCell id="48" value="น้ำ" style="edgeLabel;html=1;align=center;verticalAlign=middle;resizable=0;points=[];fontSize=20;" vertex="1" connectable="0" parent="45">
                    <mxGeometry x="-0.6091" y="1" relative="1" as="geometry">
                        <mxPoint x="-84" y="-1" as="offset"/>
                    </mxGeometry>
                </mxCell>
                <mxCell id="58" value="" style="edgeStyle=none;html=1;fontSize=20;startArrow=none;" edge="1" parent="mvioNwK95yMqdUQ73LqQ-36" source="111" target="57">
                    <mxGeometry relative="1" as="geometry"/>
                </mxCell>
                <mxCell id="62" value="" style="edgeStyle=none;html=1;fontSize=10;startArrow=none;" edge="1" parent="mvioNwK95yMqdUQ73LqQ-36" source="168" target="61">
                    <mxGeometry relative="1" as="geometry"/>
                </mxCell>
                <mxCell id="54" value="&lt;br&gt;กาแฟอเมริกาโน่ร้อน" style="rhombus;whiteSpace=wrap;html=1;fontSize=10;" vertex="1" parent="mvioNwK95yMqdUQ73LqQ-36">
                    <mxGeometry x="200" y="290" width="80" height="80" as="geometry"/>
                </mxCell>
                <mxCell id="60" value="" style="edgeStyle=none;html=1;fontSize=10;startArrow=none;" edge="1" parent="mvioNwK95yMqdUQ73LqQ-36" source="113" target="59">
                    <mxGeometry relative="1" as="geometry"/>
                </mxCell>
                <mxCell id="68" style="edgeStyle=none;html=1;exitX=1;exitY=0.5;exitDx=0;exitDy=0;entryX=0;entryY=0.5;entryDx=0;entryDy=0;fontSize=10;startArrow=none;" edge="1" parent="mvioNwK95yMqdUQ73LqQ-36" source="171" target="66">
                    <mxGeometry relative="1" as="geometry"/>
                </mxCell>
                <mxCell id="57" value="ลาเต้เย็น" style="rhombus;whiteSpace=wrap;html=1;fontSize=10;" vertex="1" parent="mvioNwK95yMqdUQ73LqQ-36">
                    <mxGeometry x="200" y="440" width="80" height="80" as="geometry"/>
                </mxCell>
                <mxCell id="73" style="edgeStyle=none;html=1;exitX=1;exitY=0.5;exitDx=0;exitDy=0;entryX=0;entryY=0.5;entryDx=0;entryDy=0;fontSize=10;startArrow=none;" edge="1" parent="mvioNwK95yMqdUQ73LqQ-36" source="173" target="70">
                    <mxGeometry relative="1" as="geometry"/>
                </mxCell>
                <mxCell id="59" value="น้ำเปล่า" style="rhombus;whiteSpace=wrap;html=1;fontSize=10;" vertex="1" parent="mvioNwK95yMqdUQ73LqQ-36">
                    <mxGeometry x="200" y="600" width="80" height="80" as="geometry"/>
                </mxCell>
                <mxCell id="64" value="" style="edgeStyle=none;html=1;fontSize=10;" edge="1" parent="mvioNwK95yMqdUQ73LqQ-36" source="61" target="63">
                    <mxGeometry relative="1" as="geometry"/>
                </mxCell>
                <mxCell id="61" value="จำนวนสินต้า - 1" style="whiteSpace=wrap;html=1;fontSize=10;" vertex="1" parent="mvioNwK95yMqdUQ73LqQ-36">
                    <mxGeometry x="357" y="305" width="90" height="50" as="geometry"/>
                </mxCell>
                <mxCell id="63" value="ราคารวม + ราคาสินต้า" style="whiteSpace=wrap;html=1;fontSize=10;" vertex="1" parent="mvioNwK95yMqdUQ73LqQ-36">
                    <mxGeometry x="482" y="310" width="98" height="45" as="geometry"/>
                </mxCell>
                <mxCell id="66" value="จำนวนสินต้า - 1" style="whiteSpace=wrap;html=1;fontSize=10;" vertex="1" parent="mvioNwK95yMqdUQ73LqQ-36">
                    <mxGeometry x="357" y="455" width="90" height="50" as="geometry"/>
                </mxCell>
                <mxCell id="67" value="ราคารวม + ราคาสินต้า" style="whiteSpace=wrap;html=1;fontSize=10;" vertex="1" parent="mvioNwK95yMqdUQ73LqQ-36">
                    <mxGeometry x="482" y="460" width="95" height="45" as="geometry"/>
                </mxCell>
                <mxCell id="65" value="" style="edgeStyle=none;html=1;fontSize=10;" edge="1" parent="mvioNwK95yMqdUQ73LqQ-36" source="66" target="67">
                    <mxGeometry relative="1" as="geometry"/>
                </mxCell>
                <mxCell id="70" value="จำนวนสินต้า - 1" style="whiteSpace=wrap;html=1;fontSize=10;" vertex="1" parent="mvioNwK95yMqdUQ73LqQ-36">
                    <mxGeometry x="357" y="615" width="90" height="50" as="geometry"/>
                </mxCell>
                <mxCell id="71" value="ราคารวม + ราคาสินต้า" style="whiteSpace=wrap;html=1;fontSize=10;" vertex="1" parent="mvioNwK95yMqdUQ73LqQ-36">
                    <mxGeometry x="482" y="615" width="95" height="45" as="geometry"/>
                </mxCell>
                <mxCell id="69" value="" style="edgeStyle=none;html=1;fontSize=10;" edge="1" parent="mvioNwK95yMqdUQ73LqQ-36" source="70" target="71">
                    <mxGeometry relative="1" as="geometry"/>
                </mxCell>
                <mxCell id="93" value="ขนมชั้น" style="rhombus;whiteSpace=wrap;html=1;fontSize=10;" vertex="1" parent="mvioNwK95yMqdUQ73LqQ-36">
                    <mxGeometry x="640" y="290" width="80" height="80" as="geometry"/>
                </mxCell>
                <mxCell id="96" value="ฝอยทอง" style="rhombus;whiteSpace=wrap;html=1;fontSize=10;" vertex="1" parent="mvioNwK95yMqdUQ73LqQ-36">
                    <mxGeometry x="640" y="440" width="80" height="80" as="geometry"/>
                </mxCell>
                <mxCell id="91" value="" style="edgeStyle=none;html=1;fontSize=20;startArrow=none;" edge="1" parent="mvioNwK95yMqdUQ73LqQ-36" source="164" target="96">
                    <mxGeometry relative="1" as="geometry"/>
                </mxCell>
                <mxCell id="98" value="ลำไยอบแห้ง" style="rhombus;whiteSpace=wrap;html=1;fontSize=10;" vertex="1" parent="mvioNwK95yMqdUQ73LqQ-36">
                    <mxGeometry x="640" y="600" width="80" height="80" as="geometry"/>
                </mxCell>
                <mxCell id="94" value="" style="edgeStyle=none;html=1;fontSize=10;startArrow=none;" edge="1" parent="mvioNwK95yMqdUQ73LqQ-36" source="166" target="98">
                    <mxGeometry relative="1" as="geometry"/>
                </mxCell>
                <mxCell id="100" value="จำนวนสินต้า - 1" style="whiteSpace=wrap;html=1;fontSize=10;" vertex="1" parent="mvioNwK95yMqdUQ73LqQ-36">
                    <mxGeometry x="800" y="303.75" width="90" height="50" as="geometry"/>
                </mxCell>
                <mxCell id="92" value="" style="edgeStyle=none;html=1;fontSize=10;startArrow=none;" edge="1" parent="mvioNwK95yMqdUQ73LqQ-36" source="175" target="100">
                    <mxGeometry relative="1" as="geometry"/>
                </mxCell>
                <mxCell id="101" value="ราคารวม + ราคาสินต้า" style="whiteSpace=wrap;html=1;fontSize=10;" vertex="1" parent="mvioNwK95yMqdUQ73LqQ-36">
                    <mxGeometry x="925" y="308.75" width="95" height="45" as="geometry"/>
                </mxCell>
                <mxCell id="99" value="" style="edgeStyle=none;html=1;fontSize=10;" edge="1" parent="mvioNwK95yMqdUQ73LqQ-36" source="100" target="101">
                    <mxGeometry relative="1" as="geometry"/>
                </mxCell>
                <mxCell id="102" value="จำนวนสินต้า - 1" style="whiteSpace=wrap;html=1;fontSize=10;" vertex="1" parent="mvioNwK95yMqdUQ73LqQ-36">
                    <mxGeometry x="800" y="455" width="90" height="50" as="geometry"/>
                </mxCell>
                <mxCell id="95" style="edgeStyle=none;html=1;exitX=1;exitY=0.5;exitDx=0;exitDy=0;entryX=0;entryY=0.5;entryDx=0;entryDy=0;fontSize=10;startArrow=none;" edge="1" parent="mvioNwK95yMqdUQ73LqQ-36" source="176" target="102">
                    <mxGeometry relative="1" as="geometry"/>
                </mxCell>
                <mxCell id="103" value="ราคารวม + ราคาสินต้า" style="whiteSpace=wrap;html=1;fontSize=10;" vertex="1" parent="mvioNwK95yMqdUQ73LqQ-36">
                    <mxGeometry x="925" y="460" width="95" height="45" as="geometry"/>
                </mxCell>
                <mxCell id="104" value="" style="edgeStyle=none;html=1;fontSize=10;" edge="1" parent="mvioNwK95yMqdUQ73LqQ-36" source="102" target="103">
                    <mxGeometry relative="1" as="geometry"/>
                </mxCell>
                <mxCell id="105" value="จำนวนสินต้า - 1" style="whiteSpace=wrap;html=1;fontSize=10;" vertex="1" parent="mvioNwK95yMqdUQ73LqQ-36">
                    <mxGeometry x="800" y="615" width="90" height="50" as="geometry"/>
                </mxCell>
                <mxCell id="97" style="edgeStyle=none;html=1;exitX=1;exitY=0.5;exitDx=0;exitDy=0;entryX=0;entryY=0.5;entryDx=0;entryDy=0;fontSize=10;startArrow=none;" edge="1" parent="mvioNwK95yMqdUQ73LqQ-36" source="177" target="105">
                    <mxGeometry relative="1" as="geometry"/>
                </mxCell>
                <mxCell id="106" value="ราคารวม + ราคาสินต้า" style="whiteSpace=wrap;html=1;fontSize=10;" vertex="1" parent="mvioNwK95yMqdUQ73LqQ-36">
                    <mxGeometry x="925" y="615" width="95" height="45" as="geometry"/>
                </mxCell>
                <mxCell id="107" value="" style="edgeStyle=none;html=1;fontSize=10;" edge="1" parent="mvioNwK95yMqdUQ73LqQ-36" source="105" target="106">
                    <mxGeometry relative="1" as="geometry"/>
                </mxCell>
                <mxCell id="47" style="edgeStyle=none;html=1;fontSize=20;entryX=0.5;entryY=0;entryDx=0;entryDy=0;" edge="1" parent="mvioNwK95yMqdUQ73LqQ-36" source="52" target="93">
                    <mxGeometry relative="1" as="geometry">
                        <mxPoint x="700" y="310" as="targetPoint"/>
                        <mxPoint x="555" y="250" as="sourcePoint"/>
                        <Array as="points">
                            <mxPoint x="680" y="250"/>
                        </Array>
                    </mxGeometry>
                </mxCell>
                <mxCell id="51" value="ขนม" style="edgeLabel;html=1;align=center;verticalAlign=middle;resizable=0;points=[];fontSize=20;" vertex="1" connectable="0" parent="47">
                    <mxGeometry x="-0.0696" y="-2" relative="1" as="geometry">
                        <mxPoint as="offset"/>
                    </mxGeometry>
                </mxCell>
                <mxCell id="111" value="F" style="text;html=1;strokeColor=none;fillColor=none;align=center;verticalAlign=middle;whiteSpace=wrap;rounded=0;fontSize=11;" vertex="1" parent="mvioNwK95yMqdUQ73LqQ-36">
                    <mxGeometry x="210" y="380" width="60" height="30" as="geometry"/>
                </mxCell>
                <mxCell id="112" value="" style="edgeStyle=none;html=1;fontSize=20;endArrow=none;" edge="1" parent="mvioNwK95yMqdUQ73LqQ-36" source="54" target="111">
                    <mxGeometry relative="1" as="geometry">
                        <mxPoint x="-480" y="1000" as="sourcePoint"/>
                        <mxPoint x="-480" y="1070" as="targetPoint"/>
                    </mxGeometry>
                </mxCell>
                <mxCell id="114" value="" style="edgeStyle=none;html=1;fontSize=10;endArrow=none;" edge="1" parent="mvioNwK95yMqdUQ73LqQ-36" source="57" target="113">
                    <mxGeometry relative="1" as="geometry">
                        <mxPoint x="-480" y="1150" as="sourcePoint"/>
                        <mxPoint x="-480" y="1230" as="targetPoint"/>
                    </mxGeometry>
                </mxCell>
                <mxCell id="113" value="F" style="text;html=1;strokeColor=none;fillColor=none;align=center;verticalAlign=middle;whiteSpace=wrap;rounded=0;fontSize=11;" vertex="1" parent="mvioNwK95yMqdUQ73LqQ-36">
                    <mxGeometry x="210" y="540" width="60" height="30" as="geometry"/>
                </mxCell>
                <mxCell id="164" value="F" style="text;html=1;strokeColor=none;fillColor=none;align=center;verticalAlign=middle;whiteSpace=wrap;rounded=0;fontSize=11;" vertex="1" parent="mvioNwK95yMqdUQ73LqQ-36">
                    <mxGeometry x="650" y="390" width="60" height="30" as="geometry"/>
                </mxCell>
                <mxCell id="165" value="" style="edgeStyle=none;html=1;fontSize=20;endArrow=none;" edge="1" parent="mvioNwK95yMqdUQ73LqQ-36" source="93" target="164">
                    <mxGeometry relative="1" as="geometry">
                        <mxPoint x="-40" y="1000" as="sourcePoint"/>
                        <mxPoint x="-40" y="1070" as="targetPoint"/>
                    </mxGeometry>
                </mxCell>
                <mxCell id="166" value="F" style="text;html=1;strokeColor=none;fillColor=none;align=center;verticalAlign=middle;whiteSpace=wrap;rounded=0;fontSize=11;" vertex="1" parent="mvioNwK95yMqdUQ73LqQ-36">
                    <mxGeometry x="650" y="549" width="60" height="30" as="geometry"/>
                </mxCell>
                <mxCell id="167" value="" style="edgeStyle=none;html=1;fontSize=10;endArrow=none;" edge="1" parent="mvioNwK95yMqdUQ73LqQ-36" source="96" target="166">
                    <mxGeometry relative="1" as="geometry">
                        <mxPoint x="-40" y="1150" as="sourcePoint"/>
                        <mxPoint x="-40" y="1230" as="targetPoint"/>
                    </mxGeometry>
                </mxCell>
                <mxCell id="170" value="" style="edgeStyle=none;html=1;fontSize=10;endArrow=none;" edge="1" parent="mvioNwK95yMqdUQ73LqQ-36" source="54" target="168">
                    <mxGeometry relative="1" as="geometry">
                        <mxPoint x="-440" y="960" as="sourcePoint"/>
                        <mxPoint x="-363" y="960" as="targetPoint"/>
                    </mxGeometry>
                </mxCell>
                <mxCell id="168" value="T" style="text;html=1;strokeColor=none;fillColor=none;align=center;verticalAlign=middle;whiteSpace=wrap;rounded=0;fontSize=14;" vertex="1" parent="mvioNwK95yMqdUQ73LqQ-36">
                    <mxGeometry x="290" y="317.5" width="50" height="22.5" as="geometry"/>
                </mxCell>
                <mxCell id="171" value="T" style="text;html=1;strokeColor=none;fillColor=none;align=center;verticalAlign=middle;whiteSpace=wrap;rounded=0;fontSize=14;" vertex="1" parent="mvioNwK95yMqdUQ73LqQ-36">
                    <mxGeometry x="290" y="468.75" width="50" height="22.5" as="geometry"/>
                </mxCell>
                <mxCell id="172" value="" style="edgeStyle=none;html=1;exitX=1;exitY=0.5;exitDx=0;exitDy=0;entryX=0;entryY=0.5;entryDx=0;entryDy=0;fontSize=10;endArrow=none;" edge="1" parent="mvioNwK95yMqdUQ73LqQ-36" source="57" target="171">
                    <mxGeometry relative="1" as="geometry">
                        <mxPoint x="-440" y="1110" as="sourcePoint"/>
                        <mxPoint x="-363" y="1110" as="targetPoint"/>
                    </mxGeometry>
                </mxCell>
                <mxCell id="173" value="T" style="text;html=1;strokeColor=none;fillColor=none;align=center;verticalAlign=middle;whiteSpace=wrap;rounded=0;fontSize=14;" vertex="1" parent="mvioNwK95yMqdUQ73LqQ-36">
                    <mxGeometry x="290" y="628.75" width="50" height="22.5" as="geometry"/>
                </mxCell>
                <mxCell id="174" value="" style="edgeStyle=none;html=1;exitX=1;exitY=0.5;exitDx=0;exitDy=0;entryX=0;entryY=0.5;entryDx=0;entryDy=0;fontSize=10;endArrow=none;" edge="1" parent="mvioNwK95yMqdUQ73LqQ-36" source="59" target="173">
                    <mxGeometry relative="1" as="geometry">
                        <mxPoint x="-440" y="1270" as="sourcePoint"/>
                        <mxPoint x="-363" y="1270" as="targetPoint"/>
                    </mxGeometry>
                </mxCell>
                <mxCell id="178" value="" style="edgeStyle=none;html=1;fontSize=10;endArrow=none;" edge="1" parent="mvioNwK95yMqdUQ73LqQ-36" source="93" target="175">
                    <mxGeometry relative="1" as="geometry">
                        <mxPoint x="-0.3007518796991917" y="959.6992481203008" as="sourcePoint"/>
                        <mxPoint x="80" y="959.090909090909" as="targetPoint"/>
                    </mxGeometry>
                </mxCell>
                <mxCell id="175" value="T" style="text;html=1;strokeColor=none;fillColor=none;align=center;verticalAlign=middle;whiteSpace=wrap;rounded=0;fontSize=14;" vertex="1" parent="mvioNwK95yMqdUQ73LqQ-36">
                    <mxGeometry x="730" y="320" width="50" height="22.5" as="geometry"/>
                </mxCell>
                <mxCell id="179" value="" style="edgeStyle=none;html=1;exitX=1;exitY=0.5;exitDx=0;exitDy=0;entryX=0;entryY=0.5;entryDx=0;entryDy=0;fontSize=10;endArrow=none;" edge="1" parent="mvioNwK95yMqdUQ73LqQ-36" source="96" target="176">
                    <mxGeometry relative="1" as="geometry">
                        <mxPoint y="1110" as="sourcePoint"/>
                        <mxPoint x="80" y="1110" as="targetPoint"/>
                    </mxGeometry>
                </mxCell>
                <mxCell id="176" value="T" style="text;html=1;strokeColor=none;fillColor=none;align=center;verticalAlign=middle;whiteSpace=wrap;rounded=0;fontSize=14;" vertex="1" parent="mvioNwK95yMqdUQ73LqQ-36">
                    <mxGeometry x="730" y="468.75" width="50" height="22.5" as="geometry"/>
                </mxCell>
                <mxCell id="180" value="" style="edgeStyle=none;html=1;exitX=1;exitY=0.5;exitDx=0;exitDy=0;entryX=0;entryY=0.5;entryDx=0;entryDy=0;fontSize=10;endArrow=none;" edge="1" parent="mvioNwK95yMqdUQ73LqQ-36" source="98" target="177">
                    <mxGeometry relative="1" as="geometry">
                        <mxPoint y="1250" as="sourcePoint"/>
                        <mxPoint x="80" y="1250" as="targetPoint"/>
                    </mxGeometry>
                </mxCell>
                <mxCell id="177" value="T" style="text;html=1;strokeColor=none;fillColor=none;align=center;verticalAlign=middle;whiteSpace=wrap;rounded=0;fontSize=14;" vertex="1" parent="mvioNwK95yMqdUQ73LqQ-36">
                    <mxGeometry x="730" y="628.75" width="50" height="22.5" as="geometry"/>
                </mxCell>
                <mxCell id="197" value="" style="edgeStyle=none;html=1;fontSize=14;" edge="1" parent="mvioNwK95yMqdUQ73LqQ-36" source="182" target="196">
                    <mxGeometry relative="1" as="geometry"/>
                </mxCell>
                <mxCell id="182" value="" style="strokeWidth=2;html=1;shape=mxgraph.flowchart.start_2;whiteSpace=wrap;" vertex="1" parent="mvioNwK95yMqdUQ73LqQ-36">
                    <mxGeometry x="610" y="750" width="20" height="20" as="geometry"/>
                </mxCell>
                <mxCell id="183" value="" style="endArrow=classic;html=1;fontSize=14;exitX=1;exitY=0.5;exitDx=0;exitDy=0;entryX=0.5;entryY=0;entryDx=0;entryDy=0;entryPerimeter=0;" edge="1" parent="mvioNwK95yMqdUQ73LqQ-36" source="63" target="182">
                    <mxGeometry width="50" height="50" relative="1" as="geometry">
                        <mxPoint x="510" y="540" as="sourcePoint"/>
                        <mxPoint x="620" y="450" as="targetPoint"/>
                        <Array as="points">
                            <mxPoint x="620" y="333"/>
                        </Array>
                    </mxGeometry>
                </mxCell>
                <mxCell id="191" value="" style="endArrow=classic;html=1;fontSize=14;exitX=0.5;exitY=1;exitDx=0;exitDy=0;entryX=0;entryY=0.5;entryDx=0;entryDy=0;entryPerimeter=0;" edge="1" parent="mvioNwK95yMqdUQ73LqQ-36" source="59" target="182">
                    <mxGeometry width="50" height="50" relative="1" as="geometry">
                        <mxPoint x="360" y="740" as="sourcePoint"/>
                        <mxPoint x="410" y="690" as="targetPoint"/>
                        <Array as="points">
                            <mxPoint x="240" y="760"/>
                        </Array>
                    </mxGeometry>
                </mxCell>
                <mxCell id="192" value="" style="endArrow=classic;html=1;fontSize=14;exitX=1;exitY=0.5;exitDx=0;exitDy=0;entryX=1;entryY=0.5;entryDx=0;entryDy=0;entryPerimeter=0;" edge="1" parent="mvioNwK95yMqdUQ73LqQ-36" source="101" target="182">
                    <mxGeometry width="50" height="50" relative="1" as="geometry">
                        <mxPoint x="900" y="410" as="sourcePoint"/>
                        <mxPoint x="780" y="740" as="targetPoint"/>
                        <Array as="points">
                            <mxPoint x="1080" y="330"/>
                            <mxPoint x="1080" y="550"/>
                            <mxPoint x="1080" y="760"/>
                        </Array>
                    </mxGeometry>
                </mxCell>
                <mxCell id="202" value="" style="edgeStyle=none;html=1;fontSize=14;entryX=0.5;entryY=0;entryDx=0;entryDy=0;startArrow=none;" edge="1" parent="mvioNwK95yMqdUQ73LqQ-36" source="208" target="203">
                    <mxGeometry relative="1" as="geometry">
                        <mxPoint x="620" y="990" as="targetPoint"/>
                    </mxGeometry>
                </mxCell>
                <mxCell id="196" value="ซื้อเพิ่มไหม" style="rhombus;whiteSpace=wrap;html=1;strokeWidth=2;" vertex="1" parent="mvioNwK95yMqdUQ73LqQ-36">
                    <mxGeometry x="580" y="820" width="80" height="80" as="geometry"/>
                </mxCell>
                <mxCell id="200" value="" style="edgeStyle=none;html=1;endArrow=none;" edge="1" parent="mvioNwK95yMqdUQ73LqQ-36" target="199">
                    <mxGeometry relative="1" as="geometry">
                        <mxPoint x="480" y="80" as="sourcePoint"/>
                        <mxPoint x="-240" y="730" as="targetPoint"/>
                    </mxGeometry>
                </mxCell>
                <mxCell id="199" value="" style="strokeWidth=2;html=1;shape=mxgraph.flowchart.start_2;whiteSpace=wrap;" vertex="1" parent="mvioNwK95yMqdUQ73LqQ-36">
                    <mxGeometry x="475" y="90" width="10" height="10" as="geometry"/>
                </mxCell>
                <mxCell id="198" value="" style="endArrow=classic;html=1;fontSize=14;exitX=0;exitY=0.5;exitDx=0;exitDy=0;entryX=0;entryY=0.5;entryDx=0;entryDy=0;entryPerimeter=0;" edge="1" parent="mvioNwK95yMqdUQ73LqQ-36" source="196" target="199">
                    <mxGeometry width="50" height="50" relative="1" as="geometry">
                        <mxPoint x="570" y="710" as="sourcePoint"/>
                        <mxPoint x="470" y="100" as="targetPoint"/>
                        <Array as="points">
                            <mxPoint x="200" y="860"/>
                            <mxPoint x="200" y="95"/>
                        </Array>
                    </mxGeometry>
                </mxCell>
                <mxCell id="207" value="&lt;font style=&quot;font-size: 16px;&quot;&gt;T&lt;/font&gt;" style="edgeLabel;html=1;align=center;verticalAlign=middle;resizable=0;points=[];fontSize=16;" vertex="1" connectable="0" parent="198">
                    <mxGeometry x="-0.6972" y="-1" relative="1" as="geometry">
                        <mxPoint as="offset"/>
                    </mxGeometry>
                </mxCell>
                <mxCell id="212" value="" style="edgeStyle=none;html=1;fontSize=16;startArrow=none;" edge="1" parent="mvioNwK95yMqdUQ73LqQ-36" source="223" target="211">
                    <mxGeometry relative="1" as="geometry"/>
                </mxCell>
                <mxCell id="203" value="&lt;font style=&quot;font-size: 10px;&quot;&gt;จำนวนสินค้า + ราคาทั้งหมด&lt;/font&gt;" style="rounded=0;whiteSpace=wrap;html=1;fontSize=14;" vertex="1" parent="mvioNwK95yMqdUQ73LqQ-36">
                    <mxGeometry x="560" y="960" width="120" height="40" as="geometry"/>
                </mxCell>
                <mxCell id="210" value="" style="edgeStyle=none;html=1;fontSize=14;entryX=0.5;entryY=0;entryDx=0;entryDy=0;endArrow=none;" edge="1" parent="mvioNwK95yMqdUQ73LqQ-36" source="196" target="208">
                    <mxGeometry relative="1" as="geometry">
                        <mxPoint x="-100" y="1510" as="sourcePoint"/>
                        <mxPoint x="-100" y="1570" as="targetPoint"/>
                    </mxGeometry>
                </mxCell>
                <mxCell id="208" value="F" style="text;html=1;strokeColor=none;fillColor=none;align=center;verticalAlign=middle;whiteSpace=wrap;rounded=0;fontSize=11;" vertex="1" parent="mvioNwK95yMqdUQ73LqQ-36">
                    <mxGeometry x="590" y="910" width="60" height="30" as="geometry"/>
                </mxCell>
                <mxCell id="214" value="" style="edgeStyle=none;html=1;fontSize=16;" edge="1" parent="mvioNwK95yMqdUQ73LqQ-36" source="211" target="213">
                    <mxGeometry relative="1" as="geometry"/>
                </mxCell>
                <mxCell id="211" value="รับเงิน" style="rounded=0;whiteSpace=wrap;html=1;fontSize=14;" vertex="1" parent="mvioNwK95yMqdUQ73LqQ-36">
                    <mxGeometry x="560" y="1040" width="120" height="40" as="geometry"/>
                </mxCell>
                <mxCell id="218" value="" style="edgeStyle=none;html=1;fontSize=12;" edge="1" parent="mvioNwK95yMqdUQ73LqQ-36" source="213">
                    <mxGeometry relative="1" as="geometry">
                        <mxPoint x="260" y="1210" as="targetPoint"/>
                        <Array as="points">
                            <mxPoint x="260" y="1150"/>
                        </Array>
                    </mxGeometry>
                </mxCell>
                <mxCell id="228" value="จำนวนเงินครบ" style="edgeLabel;html=1;align=center;verticalAlign=middle;resizable=0;points=[];fontSize=12;" vertex="1" connectable="0" parent="218">
                    <mxGeometry x="-0.1875" y="-1" relative="1" as="geometry">
                        <mxPoint as="offset"/>
                    </mxGeometry>
                </mxCell>
                <mxCell id="213" value="&lt;font style=&quot;font-size: 12px;&quot;&gt;&lt;br&gt;จำนวนเงินครบไหม&lt;/font&gt;" style="rhombus;whiteSpace=wrap;html=1;fontSize=14;rounded=0;" vertex="1" parent="mvioNwK95yMqdUQ73LqQ-36">
                    <mxGeometry x="580" y="1110" width="80" height="80" as="geometry"/>
                </mxCell>
                <mxCell id="Che68PsUWc2DVUJd55eW-307" value="" style="edgeStyle=none;html=1;fontSize=14;" edge="1" parent="mvioNwK95yMqdUQ73LqQ-36" source="217" target="Che68PsUWc2DVUJd55eW-306">
                    <mxGeometry relative="1" as="geometry"/>
                </mxCell>
                <mxCell id="Che68PsUWc2DVUJd55eW-327" value="F" style="edgeLabel;html=1;align=center;verticalAlign=middle;resizable=0;points=[];fontSize=19;" vertex="1" connectable="0" parent="Che68PsUWc2DVUJd55eW-307">
                    <mxGeometry x="-0.1765" relative="1" as="geometry">
                        <mxPoint as="offset"/>
                    </mxGeometry>
                </mxCell>
                <mxCell id="217" value="&lt;span style=&quot;font-size: 12px;&quot;&gt;&lt;br&gt;ต้องทอนเงินไหม&lt;/span&gt;" style="rhombus;whiteSpace=wrap;html=1;fontSize=14;rounded=0;" vertex="1" parent="mvioNwK95yMqdUQ73LqQ-36">
                    <mxGeometry x="220" y="1210" width="80" height="80" as="geometry"/>
                </mxCell>
                <mxCell id="223" value="" style="strokeWidth=2;html=1;shape=mxgraph.flowchart.start_2;whiteSpace=wrap;" vertex="1" parent="mvioNwK95yMqdUQ73LqQ-36">
                    <mxGeometry x="615" y="1010" width="10" height="10" as="geometry"/>
                </mxCell>
                <mxCell id="224" value="" style="edgeStyle=none;html=1;fontSize=16;endArrow=none;" edge="1" parent="mvioNwK95yMqdUQ73LqQ-36" source="203" target="223">
                    <mxGeometry relative="1" as="geometry">
                        <mxPoint x="-100" y="1610" as="sourcePoint"/>
                        <mxPoint x="-100" y="1650" as="targetPoint"/>
                    </mxGeometry>
                </mxCell>
                <mxCell id="222" style="edgeStyle=none;html=1;fontSize=12;entryX=1;entryY=0.5;entryDx=0;entryDy=0;entryPerimeter=0;" edge="1" parent="mvioNwK95yMqdUQ73LqQ-36" source="213" target="223">
                    <mxGeometry relative="1" as="geometry">
                        <mxPoint x="640" y="1015" as="targetPoint"/>
                        <Array as="points">
                            <mxPoint x="840" y="1150"/>
                            <mxPoint x="840" y="1080"/>
                            <mxPoint x="840" y="1015"/>
                        </Array>
                    </mxGeometry>
                </mxCell>
                <mxCell id="227" value="จำนวนเงินไม่ครบ" style="edgeLabel;html=1;align=center;verticalAlign=middle;resizable=0;points=[];fontSize=12;" vertex="1" connectable="0" parent="222">
                    <mxGeometry x="-0.1469" y="1" relative="1" as="geometry">
                        <mxPoint as="offset"/>
                    </mxGeometry>
                </mxCell>
                <mxCell id="Che68PsUWc2DVUJd55eW-231" value="" style="edgeStyle=none;html=1;fontSize=13;startArrow=none;" edge="1" parent="mvioNwK95yMqdUQ73LqQ-36" source="Che68PsUWc2DVUJd55eW-310" target="Che68PsUWc2DVUJd55eW-230">
                    <mxGeometry relative="1" as="geometry"/>
                </mxCell>
                <mxCell id="Che68PsUWc2DVUJd55eW-228" value="ทอนเงิน" style="whiteSpace=wrap;html=1;fontSize=14;rounded=0;" vertex="1" parent="mvioNwK95yMqdUQ73LqQ-36">
                    <mxGeometry x="30" y="1440" width="120" height="40" as="geometry"/>
                </mxCell>
                <mxCell id="Che68PsUWc2DVUJd55eW-233" value="" style="edgeStyle=none;html=1;fontSize=13;" edge="1" parent="mvioNwK95yMqdUQ73LqQ-36" source="Che68PsUWc2DVUJd55eW-230" target="Che68PsUWc2DVUJd55eW-232">
                    <mxGeometry relative="1" as="geometry"/>
                </mxCell>
                <mxCell id="Che68PsUWc2DVUJd55eW-261" value="" style="edgeStyle=none;html=1;fontSize=13;startArrow=none;" edge="1" parent="mvioNwK95yMqdUQ73LqQ-36" source="Che68PsUWc2DVUJd55eW-330" target="Che68PsUWc2DVUJd55eW-260">
                    <mxGeometry relative="1" as="geometry"/>
                </mxCell>
                <mxCell id="Che68PsUWc2DVUJd55eW-230" value="&lt;font style=&quot;font-size: 12px;&quot;&gt;1000และแบงค์1000พอไหม&lt;/font&gt;" style="rhombus;whiteSpace=wrap;html=1;fontSize=14;rounded=0;" vertex="1" parent="mvioNwK95yMqdUQ73LqQ-36">
                    <mxGeometry x="45" y="1522.5" width="90" height="80" as="geometry"/>
                </mxCell>
                <mxCell id="Che68PsUWc2DVUJd55eW-235" value="" style="edgeStyle=none;html=1;fontSize=13;" edge="1" parent="mvioNwK95yMqdUQ73LqQ-36" source="Che68PsUWc2DVUJd55eW-232" target="Che68PsUWc2DVUJd55eW-234">
                    <mxGeometry relative="1" as="geometry"/>
                </mxCell>
                <mxCell id="Che68PsUWc2DVUJd55eW-232" value="&lt;font style=&quot;&quot;&gt;&lt;font style=&quot;font-size: 10px;&quot;&gt;500&lt;/font&gt;&lt;span style=&quot;font-size: 13px;&quot;&gt;และแบงค์500พอไหม&lt;/span&gt;&lt;/font&gt;" style="rhombus;whiteSpace=wrap;html=1;fontSize=14;rounded=0;" vertex="1" parent="mvioNwK95yMqdUQ73LqQ-36">
                    <mxGeometry x="50" y="1640" width="80" height="80" as="geometry"/>
                </mxCell>
                <mxCell id="Che68PsUWc2DVUJd55eW-237" value="" style="edgeStyle=none;html=1;fontSize=13;" edge="1" parent="mvioNwK95yMqdUQ73LqQ-36" source="Che68PsUWc2DVUJd55eW-234" target="Che68PsUWc2DVUJd55eW-236">
                    <mxGeometry relative="1" as="geometry"/>
                </mxCell>
                <mxCell id="Che68PsUWc2DVUJd55eW-234" value="&lt;font size=&quot;1&quot;&gt;100และแบงค์100พอไหม&lt;/font&gt;" style="rhombus;whiteSpace=wrap;html=1;fontSize=14;rounded=0;" vertex="1" parent="mvioNwK95yMqdUQ73LqQ-36">
                    <mxGeometry x="55" y="1770" width="70" height="80" as="geometry"/>
                </mxCell>
                <mxCell id="Che68PsUWc2DVUJd55eW-239" value="" style="edgeStyle=none;html=1;fontSize=13;" edge="1" parent="mvioNwK95yMqdUQ73LqQ-36" source="Che68PsUWc2DVUJd55eW-236" target="Che68PsUWc2DVUJd55eW-238">
                    <mxGeometry relative="1" as="geometry"/>
                </mxCell>
                <mxCell id="Che68PsUWc2DVUJd55eW-236" value="&lt;font size=&quot;1&quot;&gt;50และแบงค์50&lt;br&gt;พอไหม&lt;/font&gt;" style="rhombus;whiteSpace=wrap;html=1;fontSize=14;rounded=0;" vertex="1" parent="mvioNwK95yMqdUQ73LqQ-36">
                    <mxGeometry x="50" y="1890" width="80" height="80" as="geometry"/>
                </mxCell>
                <mxCell id="Che68PsUWc2DVUJd55eW-241" value="" style="edgeStyle=none;html=1;fontSize=13;" edge="1" parent="mvioNwK95yMqdUQ73LqQ-36" source="Che68PsUWc2DVUJd55eW-238" target="Che68PsUWc2DVUJd55eW-240">
                    <mxGeometry relative="1" as="geometry"/>
                </mxCell>
                <mxCell id="Che68PsUWc2DVUJd55eW-238" value="&lt;font size=&quot;1&quot;&gt;20และแบงค์20&lt;br&gt;พอไหม&lt;/font&gt;" style="rhombus;whiteSpace=wrap;html=1;fontSize=14;rounded=0;" vertex="1" parent="mvioNwK95yMqdUQ73LqQ-36">
                    <mxGeometry x="50" y="2000" width="80" height="80" as="geometry"/>
                </mxCell>
                <mxCell id="Che68PsUWc2DVUJd55eW-243" value="" style="edgeStyle=none;html=1;fontSize=13;" edge="1" parent="mvioNwK95yMqdUQ73LqQ-36" source="Che68PsUWc2DVUJd55eW-240" target="Che68PsUWc2DVUJd55eW-242">
                    <mxGeometry relative="1" as="geometry"/>
                </mxCell>
                <mxCell id="Che68PsUWc2DVUJd55eW-240" value="&lt;font size=&quot;1&quot;&gt;10และเหรียญ10พอไหม&lt;/font&gt;" style="rhombus;whiteSpace=wrap;html=1;fontSize=14;rounded=0;" vertex="1" parent="mvioNwK95yMqdUQ73LqQ-36">
                    <mxGeometry x="45" y="2120" width="90" height="80" as="geometry"/>
                </mxCell>
                <mxCell id="Che68PsUWc2DVUJd55eW-245" value="" style="edgeStyle=none;html=1;fontSize=13;" edge="1" parent="mvioNwK95yMqdUQ73LqQ-36" source="Che68PsUWc2DVUJd55eW-242" target="Che68PsUWc2DVUJd55eW-244">
                    <mxGeometry relative="1" as="geometry"/>
                </mxCell>
                <mxCell id="Che68PsUWc2DVUJd55eW-242" value="&lt;font size=&quot;1&quot;&gt;5และเหรียญ&lt;br&gt;5พอไหม&lt;/font&gt;" style="rhombus;whiteSpace=wrap;html=1;fontSize=14;rounded=0;" vertex="1" parent="mvioNwK95yMqdUQ73LqQ-36">
                    <mxGeometry x="45" y="2250" width="90" height="80" as="geometry"/>
                </mxCell>
                <mxCell id="Che68PsUWc2DVUJd55eW-247" value="" style="edgeStyle=none;html=1;fontSize=13;" edge="1" parent="mvioNwK95yMqdUQ73LqQ-36" source="Che68PsUWc2DVUJd55eW-244" target="Che68PsUWc2DVUJd55eW-246">
                    <mxGeometry relative="1" as="geometry"/>
                </mxCell>
                <mxCell id="Che68PsUWc2DVUJd55eW-244" value="&lt;font size=&quot;1&quot;&gt;2และเหรียญ&lt;br&gt;2พอไหม&lt;/font&gt;" style="rhombus;whiteSpace=wrap;html=1;fontSize=14;rounded=0;" vertex="1" parent="mvioNwK95yMqdUQ73LqQ-36">
                    <mxGeometry x="50" y="2360" width="80" height="80" as="geometry"/>
                </mxCell>
                <mxCell id="Che68PsUWc2DVUJd55eW-249" value="" style="edgeStyle=none;html=1;fontSize=13;" edge="1" parent="mvioNwK95yMqdUQ73LqQ-36" source="Che68PsUWc2DVUJd55eW-246">
                    <mxGeometry relative="1" as="geometry">
                        <mxPoint x="90" y="2630" as="targetPoint"/>
                    </mxGeometry>
                </mxCell>
                <mxCell id="Che68PsUWc2DVUJd55eW-246" value="&lt;font style=&quot;font-size: 10px;&quot;&gt;1และเหรียญ&lt;br&gt;1พอไหม&lt;br&gt;&lt;/font&gt;" style="rhombus;whiteSpace=wrap;html=1;fontSize=14;rounded=0;" vertex="1" parent="mvioNwK95yMqdUQ73LqQ-36">
                    <mxGeometry x="50" y="2500" width="80" height="80" as="geometry"/>
                </mxCell>
                <mxCell id="Che68PsUWc2DVUJd55eW-313" value="" style="edgeStyle=none;html=1;fontSize=12;startArrow=none;" edge="1" parent="mvioNwK95yMqdUQ73LqQ-36" source="Che68PsUWc2DVUJd55eW-366" target="Che68PsUWc2DVUJd55eW-312">
                    <mxGeometry relative="1" as="geometry"/>
                </mxCell>
                <mxCell id="Che68PsUWc2DVUJd55eW-248" value="&lt;br&gt;เงินทอนครบไหม" style="rhombus;whiteSpace=wrap;html=1;fontSize=14;rounded=0;" vertex="1" parent="mvioNwK95yMqdUQ73LqQ-36">
                    <mxGeometry x="50" y="2630" width="80" height="80" as="geometry"/>
                </mxCell>
                <mxCell id="Che68PsUWc2DVUJd55eW-263" value="" style="edgeStyle=none;html=1;fontSize=13;" edge="1" parent="mvioNwK95yMqdUQ73LqQ-36" source="Che68PsUWc2DVUJd55eW-260" target="Che68PsUWc2DVUJd55eW-262">
                    <mxGeometry relative="1" as="geometry"/>
                </mxCell>
                <mxCell id="Che68PsUWc2DVUJd55eW-260" value="เงินทอน - 1000" style="whiteSpace=wrap;html=1;fontSize=14;rounded=0;" vertex="1" parent="mvioNwK95yMqdUQ73LqQ-36">
                    <mxGeometry x="190" y="1540" width="120" height="40" as="geometry"/>
                </mxCell>
                <mxCell id="Che68PsUWc2DVUJd55eW-262" value="แบงค์1000 - 1" style="whiteSpace=wrap;html=1;fontSize=14;rounded=0;" vertex="1" parent="mvioNwK95yMqdUQ73LqQ-36">
                    <mxGeometry x="345" y="1540" width="105" height="45" as="geometry"/>
                </mxCell>
                <mxCell id="Che68PsUWc2DVUJd55eW-265" value="เงินทอน - 500" style="whiteSpace=wrap;html=1;fontSize=14;rounded=0;" vertex="1" parent="mvioNwK95yMqdUQ73LqQ-36">
                    <mxGeometry x="190" y="1660" width="120" height="40" as="geometry"/>
                </mxCell>
                <mxCell id="Che68PsUWc2DVUJd55eW-266" value="แบงค์500 - 1" style="whiteSpace=wrap;html=1;fontSize=14;rounded=0;" vertex="1" parent="mvioNwK95yMqdUQ73LqQ-36">
                    <mxGeometry x="338" y="1660" width="105" height="40" as="geometry"/>
                </mxCell>
                <mxCell id="Che68PsUWc2DVUJd55eW-264" value="" style="edgeStyle=none;html=1;fontSize=13;" edge="1" parent="mvioNwK95yMqdUQ73LqQ-36" source="Che68PsUWc2DVUJd55eW-265" target="Che68PsUWc2DVUJd55eW-266">
                    <mxGeometry relative="1" as="geometry"/>
                </mxCell>
                <mxCell id="Che68PsUWc2DVUJd55eW-267" value="เงินทอน - 100" style="whiteSpace=wrap;html=1;fontSize=14;rounded=0;" vertex="1" parent="mvioNwK95yMqdUQ73LqQ-36">
                    <mxGeometry x="190" y="1790" width="120" height="40" as="geometry"/>
                </mxCell>
                <mxCell id="Che68PsUWc2DVUJd55eW-268" value="แบงค์100 - 1" style="whiteSpace=wrap;html=1;fontSize=14;rounded=0;" vertex="1" parent="mvioNwK95yMqdUQ73LqQ-36">
                    <mxGeometry x="338" y="1790" width="105" height="40" as="geometry"/>
                </mxCell>
                <mxCell id="Che68PsUWc2DVUJd55eW-269" value="" style="edgeStyle=none;html=1;fontSize=13;" edge="1" parent="mvioNwK95yMqdUQ73LqQ-36" source="Che68PsUWc2DVUJd55eW-267" target="Che68PsUWc2DVUJd55eW-268">
                    <mxGeometry relative="1" as="geometry"/>
                </mxCell>
                <mxCell id="Che68PsUWc2DVUJd55eW-270" value="เงินทอน - 50" style="whiteSpace=wrap;html=1;fontSize=14;rounded=0;" vertex="1" parent="mvioNwK95yMqdUQ73LqQ-36">
                    <mxGeometry x="190" y="1910" width="120" height="40" as="geometry"/>
                </mxCell>
                <mxCell id="Che68PsUWc2DVUJd55eW-271" value="แบงค์50 - 1" style="whiteSpace=wrap;html=1;fontSize=14;rounded=0;" vertex="1" parent="mvioNwK95yMqdUQ73LqQ-36">
                    <mxGeometry x="338" y="1910" width="105" height="40" as="geometry"/>
                </mxCell>
                <mxCell id="Che68PsUWc2DVUJd55eW-272" value="" style="edgeStyle=none;html=1;fontSize=13;" edge="1" parent="mvioNwK95yMqdUQ73LqQ-36" source="Che68PsUWc2DVUJd55eW-270" target="Che68PsUWc2DVUJd55eW-271">
                    <mxGeometry relative="1" as="geometry"/>
                </mxCell>
                <mxCell id="Che68PsUWc2DVUJd55eW-273" value="เงินทอน - 20" style="whiteSpace=wrap;html=1;fontSize=14;rounded=0;" vertex="1" parent="mvioNwK95yMqdUQ73LqQ-36">
                    <mxGeometry x="190" y="2020" width="120" height="40" as="geometry"/>
                </mxCell>
                <mxCell id="Che68PsUWc2DVUJd55eW-274" value="แบงค์20 - 1" style="whiteSpace=wrap;html=1;fontSize=14;rounded=0;" vertex="1" parent="mvioNwK95yMqdUQ73LqQ-36">
                    <mxGeometry x="338" y="2020" width="105" height="40" as="geometry"/>
                </mxCell>
                <mxCell id="Che68PsUWc2DVUJd55eW-275" value="" style="edgeStyle=none;html=1;fontSize=13;" edge="1" parent="mvioNwK95yMqdUQ73LqQ-36" source="Che68PsUWc2DVUJd55eW-273" target="Che68PsUWc2DVUJd55eW-274">
                    <mxGeometry relative="1" as="geometry"/>
                </mxCell>
                <mxCell id="Che68PsUWc2DVUJd55eW-279" value="เงินทอน - 10" style="whiteSpace=wrap;html=1;fontSize=14;rounded=0;" vertex="1" parent="mvioNwK95yMqdUQ73LqQ-36">
                    <mxGeometry x="190" y="2140" width="120" height="40" as="geometry"/>
                </mxCell>
                <mxCell id="Che68PsUWc2DVUJd55eW-280" value="เหรียญ10 - 1" style="whiteSpace=wrap;html=1;fontSize=14;rounded=0;" vertex="1" parent="mvioNwK95yMqdUQ73LqQ-36">
                    <mxGeometry x="338" y="2140" width="105" height="40" as="geometry"/>
                </mxCell>
                <mxCell id="Che68PsUWc2DVUJd55eW-281" value="" style="edgeStyle=none;html=1;fontSize=13;" edge="1" parent="mvioNwK95yMqdUQ73LqQ-36" source="Che68PsUWc2DVUJd55eW-279" target="Che68PsUWc2DVUJd55eW-280">
                    <mxGeometry relative="1" as="geometry"/>
                </mxCell>
                <mxCell id="Che68PsUWc2DVUJd55eW-282" value="เงินทอน - 5" style="whiteSpace=wrap;html=1;fontSize=14;rounded=0;" vertex="1" parent="mvioNwK95yMqdUQ73LqQ-36">
                    <mxGeometry x="190" y="2270" width="120" height="40" as="geometry"/>
                </mxCell>
                <mxCell id="Che68PsUWc2DVUJd55eW-283" value="เหรียญ5 - 1" style="whiteSpace=wrap;html=1;fontSize=14;rounded=0;" vertex="1" parent="mvioNwK95yMqdUQ73LqQ-36">
                    <mxGeometry x="338" y="2270" width="105" height="40" as="geometry"/>
                </mxCell>
                <mxCell id="Che68PsUWc2DVUJd55eW-284" value="" style="edgeStyle=none;html=1;fontSize=13;" edge="1" parent="mvioNwK95yMqdUQ73LqQ-36" source="Che68PsUWc2DVUJd55eW-282" target="Che68PsUWc2DVUJd55eW-283">
                    <mxGeometry relative="1" as="geometry"/>
                </mxCell>
                <mxCell id="Che68PsUWc2DVUJd55eW-285" value="เงินทอน - 2" style="whiteSpace=wrap;html=1;fontSize=14;rounded=0;" vertex="1" parent="mvioNwK95yMqdUQ73LqQ-36">
                    <mxGeometry x="190" y="2380" width="120" height="40" as="geometry"/>
                </mxCell>
                <mxCell id="Che68PsUWc2DVUJd55eW-286" value="เหรียญ2 - 1" style="whiteSpace=wrap;html=1;fontSize=14;rounded=0;" vertex="1" parent="mvioNwK95yMqdUQ73LqQ-36">
                    <mxGeometry x="338" y="2380" width="105" height="40" as="geometry"/>
                </mxCell>
                <mxCell id="Che68PsUWc2DVUJd55eW-287" value="" style="edgeStyle=none;html=1;fontSize=13;" edge="1" parent="mvioNwK95yMqdUQ73LqQ-36" source="Che68PsUWc2DVUJd55eW-285" target="Che68PsUWc2DVUJd55eW-286">
                    <mxGeometry relative="1" as="geometry"/>
                </mxCell>
                <mxCell id="Che68PsUWc2DVUJd55eW-288" value="เงินทอน - 1" style="whiteSpace=wrap;html=1;fontSize=14;rounded=0;" vertex="1" parent="mvioNwK95yMqdUQ73LqQ-36">
                    <mxGeometry x="190" y="2520" width="120" height="40" as="geometry"/>
                </mxCell>
                <mxCell id="Che68PsUWc2DVUJd55eW-289" value="เหรียญ1 - 1" style="whiteSpace=wrap;html=1;fontSize=14;rounded=0;" vertex="1" parent="mvioNwK95yMqdUQ73LqQ-36">
                    <mxGeometry x="338" y="2520" width="105" height="40" as="geometry"/>
                </mxCell>
                <mxCell id="Che68PsUWc2DVUJd55eW-290" value="" style="edgeStyle=none;html=1;fontSize=13;" edge="1" parent="mvioNwK95yMqdUQ73LqQ-36" source="Che68PsUWc2DVUJd55eW-288" target="Che68PsUWc2DVUJd55eW-289">
                    <mxGeometry relative="1" as="geometry"/>
                </mxCell>
                <mxCell id="Che68PsUWc2DVUJd55eW-291" value="" style="endArrow=classic;html=1;fontSize=13;exitX=1;exitY=0.5;exitDx=0;exitDy=0;entryX=0;entryY=0.5;entryDx=0;entryDy=0;startArrow=none;" edge="1" parent="mvioNwK95yMqdUQ73LqQ-36" source="Che68PsUWc2DVUJd55eW-333" target="Che68PsUWc2DVUJd55eW-265">
                    <mxGeometry width="50" height="50" relative="1" as="geometry">
                        <mxPoint x="170" y="1720" as="sourcePoint"/>
                        <mxPoint x="220" y="1670" as="targetPoint"/>
                    </mxGeometry>
                </mxCell>
                <mxCell id="Che68PsUWc2DVUJd55eW-292" value="" style="endArrow=classic;html=1;fontSize=13;exitX=1;exitY=0.5;exitDx=0;exitDy=0;entryX=0;entryY=0.5;entryDx=0;entryDy=0;startArrow=none;" edge="1" parent="mvioNwK95yMqdUQ73LqQ-36" source="Che68PsUWc2DVUJd55eW-335" target="Che68PsUWc2DVUJd55eW-267">
                    <mxGeometry width="50" height="50" relative="1" as="geometry">
                        <mxPoint x="170" y="1720" as="sourcePoint"/>
                        <mxPoint x="220" y="1670" as="targetPoint"/>
                    </mxGeometry>
                </mxCell>
                <mxCell id="Che68PsUWc2DVUJd55eW-293" value="" style="endArrow=classic;html=1;fontSize=13;exitX=1;exitY=0.5;exitDx=0;exitDy=0;entryX=0;entryY=0.5;entryDx=0;entryDy=0;startArrow=none;" edge="1" parent="mvioNwK95yMqdUQ73LqQ-36" source="Che68PsUWc2DVUJd55eW-338" target="Che68PsUWc2DVUJd55eW-270">
                    <mxGeometry width="50" height="50" relative="1" as="geometry">
                        <mxPoint x="170" y="1820" as="sourcePoint"/>
                        <mxPoint x="220" y="1770" as="targetPoint"/>
                    </mxGeometry>
                </mxCell>
                <mxCell id="Che68PsUWc2DVUJd55eW-294" value="" style="endArrow=classic;html=1;fontSize=13;exitX=1;exitY=0.5;exitDx=0;exitDy=0;entryX=0;entryY=0.5;entryDx=0;entryDy=0;startArrow=none;" edge="1" parent="mvioNwK95yMqdUQ73LqQ-36" source="Che68PsUWc2DVUJd55eW-341" target="Che68PsUWc2DVUJd55eW-273">
                    <mxGeometry width="50" height="50" relative="1" as="geometry">
                        <mxPoint x="170" y="2120" as="sourcePoint"/>
                        <mxPoint x="220" y="2070" as="targetPoint"/>
                    </mxGeometry>
                </mxCell>
                <mxCell id="Che68PsUWc2DVUJd55eW-295" value="" style="endArrow=classic;html=1;fontSize=13;exitX=1;exitY=0.5;exitDx=0;exitDy=0;entryX=0;entryY=0.5;entryDx=0;entryDy=0;startArrow=none;" edge="1" parent="mvioNwK95yMqdUQ73LqQ-36" source="Che68PsUWc2DVUJd55eW-345" target="Che68PsUWc2DVUJd55eW-282">
                    <mxGeometry width="50" height="50" relative="1" as="geometry">
                        <mxPoint x="170" y="2320" as="sourcePoint"/>
                        <mxPoint x="220" y="2270" as="targetPoint"/>
                    </mxGeometry>
                </mxCell>
                <mxCell id="Che68PsUWc2DVUJd55eW-296" value="" style="endArrow=classic;html=1;fontSize=13;exitX=1;exitY=0.5;exitDx=0;exitDy=0;entryX=0;entryY=0.5;entryDx=0;entryDy=0;startArrow=none;" edge="1" parent="mvioNwK95yMqdUQ73LqQ-36" source="Che68PsUWc2DVUJd55eW-343" target="Che68PsUWc2DVUJd55eW-279">
                    <mxGeometry width="50" height="50" relative="1" as="geometry">
                        <mxPoint x="170" y="2320" as="sourcePoint"/>
                        <mxPoint x="220" y="2270" as="targetPoint"/>
                    </mxGeometry>
                </mxCell>
                <mxCell id="Che68PsUWc2DVUJd55eW-297" value="" style="endArrow=classic;html=1;fontSize=13;exitX=1;exitY=0.5;exitDx=0;exitDy=0;entryX=0;entryY=0.5;entryDx=0;entryDy=0;startArrow=none;" edge="1" parent="mvioNwK95yMqdUQ73LqQ-36" source="Che68PsUWc2DVUJd55eW-347" target="Che68PsUWc2DVUJd55eW-285">
                    <mxGeometry width="50" height="50" relative="1" as="geometry">
                        <mxPoint x="170" y="2520" as="sourcePoint"/>
                        <mxPoint x="220" y="2470" as="targetPoint"/>
                    </mxGeometry>
                </mxCell>
                <mxCell id="Che68PsUWc2DVUJd55eW-298" value="" style="endArrow=classic;html=1;fontSize=13;exitX=1;exitY=0.5;exitDx=0;exitDy=0;entryX=0;entryY=0.5;entryDx=0;entryDy=0;startArrow=none;" edge="1" parent="mvioNwK95yMqdUQ73LqQ-36" source="Che68PsUWc2DVUJd55eW-349" target="Che68PsUWc2DVUJd55eW-288">
                    <mxGeometry width="50" height="50" relative="1" as="geometry">
                        <mxPoint x="170" y="2520" as="sourcePoint"/>
                        <mxPoint x="220" y="2470" as="targetPoint"/>
                    </mxGeometry>
                </mxCell>
                <mxCell id="Che68PsUWc2DVUJd55eW-369" value="" style="edgeStyle=none;html=1;fontSize=19;entryX=0.5;entryY=0;entryDx=0;entryDy=0;" edge="1" parent="mvioNwK95yMqdUQ73LqQ-36" source="Che68PsUWc2DVUJd55eW-299" target="Che68PsUWc2DVUJd55eW-368">
                    <mxGeometry relative="1" as="geometry">
                        <mxPoint x="730" y="1490" as="targetPoint"/>
                        <Array as="points">
                            <mxPoint x="720" y="1390"/>
                        </Array>
                    </mxGeometry>
                </mxCell>
                <mxCell id="Che68PsUWc2DVUJd55eW-299" value="&lt;span style=&quot;font-size: 14px;&quot;&gt;เงินทอนพอไหม&lt;/span&gt;" style="rhombus;whiteSpace=wrap;html=1;fontSize=13;" vertex="1" parent="mvioNwK95yMqdUQ73LqQ-36">
                    <mxGeometry x="215" y="1350" width="90" height="80" as="geometry"/>
                </mxCell>
                <mxCell id="Che68PsUWc2DVUJd55eW-302" value="" style="endArrow=classic;html=1;fontSize=14;exitX=0.5;exitY=1;exitDx=0;exitDy=0;entryX=0.5;entryY=0;entryDx=0;entryDy=0;startArrow=none;" edge="1" parent="mvioNwK95yMqdUQ73LqQ-36" source="Che68PsUWc2DVUJd55eW-328" target="Che68PsUWc2DVUJd55eW-299">
                    <mxGeometry width="50" height="50" relative="1" as="geometry">
                        <mxPoint x="100" y="1400" as="sourcePoint"/>
                        <mxPoint x="150" y="1350" as="targetPoint"/>
                        <Array as="points">
                            <mxPoint x="260" y="1310"/>
                        </Array>
                    </mxGeometry>
                </mxCell>
                <mxCell id="Che68PsUWc2DVUJd55eW-303" value="" style="endArrow=classic;html=1;fontSize=14;exitX=0;exitY=0.5;exitDx=0;exitDy=0;entryX=0.5;entryY=0;entryDx=0;entryDy=0;" edge="1" parent="mvioNwK95yMqdUQ73LqQ-36" source="Che68PsUWc2DVUJd55eW-299" target="Che68PsUWc2DVUJd55eW-228">
                    <mxGeometry width="50" height="50" relative="1" as="geometry">
                        <mxPoint x="100" y="1400" as="sourcePoint"/>
                        <mxPoint x="150" y="1350" as="targetPoint"/>
                        <Array as="points">
                            <mxPoint x="90" y="1390"/>
                        </Array>
                    </mxGeometry>
                </mxCell>
                <mxCell id="Che68PsUWc2DVUJd55eW-306" value="&lt;font style=&quot;font-size: 19px;&quot;&gt;รับสินค้า&lt;/font&gt;" style="whiteSpace=wrap;html=1;fontSize=14;rounded=0;" vertex="1" parent="mvioNwK95yMqdUQ73LqQ-36">
                    <mxGeometry x="555" y="1220" width="120" height="60" as="geometry"/>
                </mxCell>
                <mxCell id="Che68PsUWc2DVUJd55eW-308" value="" style="endArrow=classic;html=1;fontSize=19;entryX=1;entryY=0.5;entryDx=0;entryDy=0;" edge="1" parent="mvioNwK95yMqdUQ73LqQ-36" target="Che68PsUWc2DVUJd55eW-248">
                    <mxGeometry width="50" height="50" relative="1" as="geometry">
                        <mxPoint x="450" y="1563" as="sourcePoint"/>
                        <mxPoint x="520" y="2670" as="targetPoint"/>
                        <Array as="points">
                            <mxPoint x="550" y="1563"/>
                            <mxPoint x="550" y="2120"/>
                            <mxPoint x="550" y="2670"/>
                        </Array>
                    </mxGeometry>
                </mxCell>
                <mxCell id="Che68PsUWc2DVUJd55eW-311" value="" style="edgeStyle=none;html=1;fontSize=13;endArrow=none;" edge="1" parent="mvioNwK95yMqdUQ73LqQ-36" source="Che68PsUWc2DVUJd55eW-228" target="Che68PsUWc2DVUJd55eW-310">
                    <mxGeometry relative="1" as="geometry">
                        <mxPoint x="-700" y="2110" as="sourcePoint"/>
                        <mxPoint x="-700" y="2150" as="targetPoint"/>
                    </mxGeometry>
                </mxCell>
                <mxCell id="Che68PsUWc2DVUJd55eW-310" value="" style="strokeWidth=2;html=1;shape=mxgraph.flowchart.start_2;whiteSpace=wrap;" vertex="1" parent="mvioNwK95yMqdUQ73LqQ-36">
                    <mxGeometry x="85" y="1490" width="10" height="10" as="geometry"/>
                </mxCell>
                <mxCell id="Che68PsUWc2DVUJd55eW-309" value="" style="endArrow=classic;html=1;fontSize=12;exitX=0;exitY=0.5;exitDx=0;exitDy=0;entryX=0;entryY=0.5;entryDx=0;entryDy=0;entryPerimeter=0;" edge="1" parent="mvioNwK95yMqdUQ73LqQ-36" source="Che68PsUWc2DVUJd55eW-248" target="Che68PsUWc2DVUJd55eW-310">
                    <mxGeometry width="50" height="50" relative="1" as="geometry">
                        <mxPoint x="270" y="2610" as="sourcePoint"/>
                        <mxPoint x="40" y="1510" as="targetPoint"/>
                        <Array as="points">
                            <mxPoint x="30" y="2670"/>
                            <mxPoint x="30" y="2370"/>
                            <mxPoint x="30" y="2070"/>
                            <mxPoint x="30" y="1495"/>
                        </Array>
                    </mxGeometry>
                </mxCell>
                <mxCell id="Che68PsUWc2DVUJd55eW-376" value="" style="edgeStyle=none;html=1;fontSize=18;" edge="1" parent="mvioNwK95yMqdUQ73LqQ-36" source="Che68PsUWc2DVUJd55eW-312" target="Che68PsUWc2DVUJd55eW-375">
                    <mxGeometry relative="1" as="geometry"/>
                </mxCell>
                <mxCell id="Che68PsUWc2DVUJd55eW-312" value="รับเงินทอน" style="whiteSpace=wrap;html=1;fontSize=19;rounded=0;" vertex="1" parent="mvioNwK95yMqdUQ73LqQ-36">
                    <mxGeometry x="30" y="2800" width="120" height="60" as="geometry"/>
                </mxCell>
                <mxCell id="Che68PsUWc2DVUJd55eW-328" value="T" style="text;html=1;strokeColor=none;fillColor=none;align=center;verticalAlign=middle;whiteSpace=wrap;rounded=0;fontSize=19;" vertex="1" parent="mvioNwK95yMqdUQ73LqQ-36">
                    <mxGeometry x="230" y="1300" width="60" height="30" as="geometry"/>
                </mxCell>
                <mxCell id="Che68PsUWc2DVUJd55eW-329" value="" style="endArrow=none;html=1;fontSize=14;exitX=0.5;exitY=1;exitDx=0;exitDy=0;entryX=0.5;entryY=0;entryDx=0;entryDy=0;" edge="1" parent="mvioNwK95yMqdUQ73LqQ-36" source="217" target="Che68PsUWc2DVUJd55eW-328">
                    <mxGeometry width="50" height="50" relative="1" as="geometry">
                        <mxPoint x="-530" y="1920" as="sourcePoint"/>
                        <mxPoint x="-530" y="1980" as="targetPoint"/>
                        <Array as="points"/>
                    </mxGeometry>
                </mxCell>
                <mxCell id="Che68PsUWc2DVUJd55eW-330" value="T" style="text;html=1;strokeColor=none;fillColor=none;align=center;verticalAlign=middle;whiteSpace=wrap;rounded=0;fontSize=19;" vertex="1" parent="mvioNwK95yMqdUQ73LqQ-36">
                    <mxGeometry x="140" y="1545" width="40" height="30" as="geometry"/>
                </mxCell>
                <mxCell id="Che68PsUWc2DVUJd55eW-331" value="" style="edgeStyle=none;html=1;fontSize=13;endArrow=none;exitX=1;exitY=0.5;exitDx=0;exitDy=0;entryX=0;entryY=0.5;entryDx=0;entryDy=0;" edge="1" parent="mvioNwK95yMqdUQ73LqQ-36" source="Che68PsUWc2DVUJd55eW-230" target="Che68PsUWc2DVUJd55eW-330">
                    <mxGeometry relative="1" as="geometry">
                        <mxPoint x="-660" y="2190" as="sourcePoint"/>
                        <mxPoint x="140" y="1563" as="targetPoint"/>
                        <Array as="points"/>
                    </mxGeometry>
                </mxCell>
                <mxCell id="Che68PsUWc2DVUJd55eW-333" value="T" style="text;html=1;strokeColor=none;fillColor=none;align=center;verticalAlign=middle;whiteSpace=wrap;rounded=0;fontSize=19;" vertex="1" parent="mvioNwK95yMqdUQ73LqQ-36">
                    <mxGeometry x="130" y="1665" width="50" height="30" as="geometry"/>
                </mxCell>
                <mxCell id="Che68PsUWc2DVUJd55eW-334" value="" style="endArrow=none;html=1;fontSize=13;exitX=1;exitY=0.5;exitDx=0;exitDy=0;entryX=0;entryY=0.5;entryDx=0;entryDy=0;" edge="1" parent="mvioNwK95yMqdUQ73LqQ-36" source="Che68PsUWc2DVUJd55eW-232" target="Che68PsUWc2DVUJd55eW-333">
                    <mxGeometry width="50" height="50" relative="1" as="geometry">
                        <mxPoint x="-660" y="2310" as="sourcePoint"/>
                        <mxPoint x="-600" y="2310" as="targetPoint"/>
                    </mxGeometry>
                </mxCell>
                <mxCell id="Che68PsUWc2DVUJd55eW-337" value="" style="endArrow=none;html=1;fontSize=13;exitX=1;exitY=0.5;exitDx=0;exitDy=0;entryX=0;entryY=0.5;entryDx=0;entryDy=0;" edge="1" parent="mvioNwK95yMqdUQ73LqQ-36" source="Che68PsUWc2DVUJd55eW-234" target="Che68PsUWc2DVUJd55eW-335">
                    <mxGeometry width="50" height="50" relative="1" as="geometry">
                        <mxPoint x="-660" y="2440" as="sourcePoint"/>
                        <mxPoint x="-600" y="2440" as="targetPoint"/>
                    </mxGeometry>
                </mxCell>
                <mxCell id="Che68PsUWc2DVUJd55eW-335" value="T" style="text;html=1;strokeColor=none;fillColor=none;align=center;verticalAlign=middle;whiteSpace=wrap;rounded=0;fontSize=19;" vertex="1" parent="mvioNwK95yMqdUQ73LqQ-36">
                    <mxGeometry x="140" y="1795" width="30" height="30" as="geometry"/>
                </mxCell>
                <mxCell id="Che68PsUWc2DVUJd55eW-338" value="T" style="text;html=1;strokeColor=none;fillColor=none;align=center;verticalAlign=middle;whiteSpace=wrap;rounded=0;fontSize=19;" vertex="1" parent="mvioNwK95yMqdUQ73LqQ-36">
                    <mxGeometry x="140" y="1915" width="30" height="30" as="geometry"/>
                </mxCell>
                <mxCell id="Che68PsUWc2DVUJd55eW-339" value="" style="endArrow=none;html=1;fontSize=13;exitX=1;exitY=0.5;exitDx=0;exitDy=0;entryX=0;entryY=0.5;entryDx=0;entryDy=0;" edge="1" parent="mvioNwK95yMqdUQ73LqQ-36" source="Che68PsUWc2DVUJd55eW-236" target="Che68PsUWc2DVUJd55eW-338">
                    <mxGeometry width="50" height="50" relative="1" as="geometry">
                        <mxPoint x="-660" y="2560" as="sourcePoint"/>
                        <mxPoint x="-600" y="2560" as="targetPoint"/>
                    </mxGeometry>
                </mxCell>
                <mxCell id="Che68PsUWc2DVUJd55eW-341" value="T" style="text;html=1;strokeColor=none;fillColor=none;align=center;verticalAlign=middle;whiteSpace=wrap;rounded=0;fontSize=19;" vertex="1" parent="mvioNwK95yMqdUQ73LqQ-36">
                    <mxGeometry x="140" y="2025" width="30" height="30" as="geometry"/>
                </mxCell>
                <mxCell id="Che68PsUWc2DVUJd55eW-342" value="" style="endArrow=none;html=1;fontSize=13;exitX=1;exitY=0.5;exitDx=0;exitDy=0;entryX=0;entryY=0.5;entryDx=0;entryDy=0;" edge="1" parent="mvioNwK95yMqdUQ73LqQ-36" source="Che68PsUWc2DVUJd55eW-238" target="Che68PsUWc2DVUJd55eW-341">
                    <mxGeometry width="50" height="50" relative="1" as="geometry">
                        <mxPoint x="-660" y="2670" as="sourcePoint"/>
                        <mxPoint x="-600" y="2670" as="targetPoint"/>
                    </mxGeometry>
                </mxCell>
                <mxCell id="Che68PsUWc2DVUJd55eW-343" value="T" style="text;html=1;strokeColor=none;fillColor=none;align=center;verticalAlign=middle;whiteSpace=wrap;rounded=0;fontSize=19;" vertex="1" parent="mvioNwK95yMqdUQ73LqQ-36">
                    <mxGeometry x="140" y="2145" width="40" height="30" as="geometry"/>
                </mxCell>
                <mxCell id="Che68PsUWc2DVUJd55eW-344" value="" style="endArrow=none;html=1;fontSize=13;exitX=1;exitY=0.5;exitDx=0;exitDy=0;entryX=0;entryY=0.5;entryDx=0;entryDy=0;" edge="1" parent="mvioNwK95yMqdUQ73LqQ-36" source="Che68PsUWc2DVUJd55eW-240" target="Che68PsUWc2DVUJd55eW-343">
                    <mxGeometry width="50" height="50" relative="1" as="geometry">
                        <mxPoint x="-660" y="2790" as="sourcePoint"/>
                        <mxPoint x="-600" y="2790" as="targetPoint"/>
                    </mxGeometry>
                </mxCell>
                <mxCell id="Che68PsUWc2DVUJd55eW-345" value="T" style="text;html=1;strokeColor=none;fillColor=none;align=center;verticalAlign=middle;whiteSpace=wrap;rounded=0;fontSize=19;" vertex="1" parent="mvioNwK95yMqdUQ73LqQ-36">
                    <mxGeometry x="150" y="2275" width="20" height="30" as="geometry"/>
                </mxCell>
                <mxCell id="Che68PsUWc2DVUJd55eW-346" value="" style="endArrow=none;html=1;fontSize=13;exitX=1;exitY=0.5;exitDx=0;exitDy=0;entryX=0;entryY=0.5;entryDx=0;entryDy=0;" edge="1" parent="mvioNwK95yMqdUQ73LqQ-36" source="Che68PsUWc2DVUJd55eW-242" target="Che68PsUWc2DVUJd55eW-345">
                    <mxGeometry width="50" height="50" relative="1" as="geometry">
                        <mxPoint x="-660" y="2920" as="sourcePoint"/>
                        <mxPoint x="-600" y="2920" as="targetPoint"/>
                    </mxGeometry>
                </mxCell>
                <mxCell id="Che68PsUWc2DVUJd55eW-347" value="T" style="text;html=1;strokeColor=none;fillColor=none;align=center;verticalAlign=middle;whiteSpace=wrap;rounded=0;fontSize=19;" vertex="1" parent="mvioNwK95yMqdUQ73LqQ-36">
                    <mxGeometry x="140" y="2385" width="30" height="30" as="geometry"/>
                </mxCell>
                <mxCell id="Che68PsUWc2DVUJd55eW-348" value="" style="endArrow=none;html=1;fontSize=13;exitX=1;exitY=0.5;exitDx=0;exitDy=0;entryX=0;entryY=0.5;entryDx=0;entryDy=0;" edge="1" parent="mvioNwK95yMqdUQ73LqQ-36" source="Che68PsUWc2DVUJd55eW-244" target="Che68PsUWc2DVUJd55eW-347">
                    <mxGeometry width="50" height="50" relative="1" as="geometry">
                        <mxPoint x="-660" y="3030" as="sourcePoint"/>
                        <mxPoint x="-600" y="3030" as="targetPoint"/>
                    </mxGeometry>
                </mxCell>
                <mxCell id="Che68PsUWc2DVUJd55eW-349" value="T" style="text;html=1;strokeColor=none;fillColor=none;align=center;verticalAlign=middle;whiteSpace=wrap;rounded=0;fontSize=19;" vertex="1" parent="mvioNwK95yMqdUQ73LqQ-36">
                    <mxGeometry x="140" y="2525" width="30" height="30" as="geometry"/>
                </mxCell>
                <mxCell id="Che68PsUWc2DVUJd55eW-350" value="" style="endArrow=none;html=1;fontSize=13;exitX=1;exitY=0.5;exitDx=0;exitDy=0;entryX=0;entryY=0.5;entryDx=0;entryDy=0;" edge="1" parent="mvioNwK95yMqdUQ73LqQ-36" source="Che68PsUWc2DVUJd55eW-246" target="Che68PsUWc2DVUJd55eW-349">
                    <mxGeometry width="50" height="50" relative="1" as="geometry">
                        <mxPoint x="-660" y="3170" as="sourcePoint"/>
                        <mxPoint x="-600" y="3170" as="targetPoint"/>
                    </mxGeometry>
                </mxCell>
                <mxCell id="Che68PsUWc2DVUJd55eW-351" value="F" style="text;html=1;strokeColor=none;fillColor=none;align=center;verticalAlign=middle;whiteSpace=wrap;rounded=0;fontSize=19;" vertex="1" parent="mvioNwK95yMqdUQ73LqQ-36">
                    <mxGeometry x="80" y="1600" width="60" height="30" as="geometry"/>
                </mxCell>
                <mxCell id="Che68PsUWc2DVUJd55eW-355" value="F" style="text;html=1;strokeColor=none;fillColor=none;align=center;verticalAlign=middle;whiteSpace=wrap;rounded=0;fontSize=19;" vertex="1" parent="mvioNwK95yMqdUQ73LqQ-36">
                    <mxGeometry x="80" y="1720" width="60" height="30" as="geometry"/>
                </mxCell>
                <mxCell id="Che68PsUWc2DVUJd55eW-356" value="F" style="text;html=1;strokeColor=none;fillColor=none;align=center;verticalAlign=middle;whiteSpace=wrap;rounded=0;fontSize=19;" vertex="1" parent="mvioNwK95yMqdUQ73LqQ-36">
                    <mxGeometry x="80" y="1850" width="60" height="30" as="geometry"/>
                </mxCell>
                <mxCell id="Che68PsUWc2DVUJd55eW-357" value="F" style="text;html=1;strokeColor=none;fillColor=none;align=center;verticalAlign=middle;whiteSpace=wrap;rounded=0;fontSize=19;" vertex="1" parent="mvioNwK95yMqdUQ73LqQ-36">
                    <mxGeometry x="80" y="1970" width="60" height="30" as="geometry"/>
                </mxCell>
                <mxCell id="Che68PsUWc2DVUJd55eW-358" value="F" style="text;html=1;strokeColor=none;fillColor=none;align=center;verticalAlign=middle;whiteSpace=wrap;rounded=0;fontSize=19;" vertex="1" parent="mvioNwK95yMqdUQ73LqQ-36">
                    <mxGeometry x="80" y="2080" width="60" height="30" as="geometry"/>
                </mxCell>
                <mxCell id="Che68PsUWc2DVUJd55eW-359" value="F" style="text;html=1;strokeColor=none;fillColor=none;align=center;verticalAlign=middle;whiteSpace=wrap;rounded=0;fontSize=19;" vertex="1" parent="mvioNwK95yMqdUQ73LqQ-36">
                    <mxGeometry x="80" y="2210" width="60" height="30" as="geometry"/>
                </mxCell>
                <mxCell id="Che68PsUWc2DVUJd55eW-360" value="F" style="text;html=1;strokeColor=none;fillColor=none;align=center;verticalAlign=middle;whiteSpace=wrap;rounded=0;fontSize=19;" vertex="1" parent="mvioNwK95yMqdUQ73LqQ-36">
                    <mxGeometry x="80" y="2330" width="60" height="30" as="geometry"/>
                </mxCell>
                <mxCell id="Che68PsUWc2DVUJd55eW-362" value="F" style="text;html=1;strokeColor=none;fillColor=none;align=center;verticalAlign=middle;whiteSpace=wrap;rounded=0;fontSize=19;" vertex="1" parent="mvioNwK95yMqdUQ73LqQ-36">
                    <mxGeometry x="80" y="2450" width="60" height="30" as="geometry"/>
                </mxCell>
                <mxCell id="Che68PsUWc2DVUJd55eW-363" value="F" style="text;html=1;strokeColor=none;fillColor=none;align=center;verticalAlign=middle;whiteSpace=wrap;rounded=0;fontSize=19;" vertex="1" parent="mvioNwK95yMqdUQ73LqQ-36">
                    <mxGeometry x="80" y="2590" width="60" height="30" as="geometry"/>
                </mxCell>
                <mxCell id="Che68PsUWc2DVUJd55eW-364" value="F" style="text;html=1;strokeColor=none;fillColor=none;align=center;verticalAlign=middle;whiteSpace=wrap;rounded=0;fontSize=19;" vertex="1" parent="mvioNwK95yMqdUQ73LqQ-36">
                    <mxGeometry x="-10" y="2190" width="60" height="30" as="geometry"/>
                </mxCell>
                <mxCell id="Che68PsUWc2DVUJd55eW-367" value="" style="edgeStyle=none;html=1;fontSize=12;endArrow=none;" edge="1" parent="mvioNwK95yMqdUQ73LqQ-36" source="Che68PsUWc2DVUJd55eW-248" target="Che68PsUWc2DVUJd55eW-366">
                    <mxGeometry relative="1" as="geometry">
                        <mxPoint x="-700" y="3340" as="sourcePoint"/>
                        <mxPoint x="-700" y="3430" as="targetPoint"/>
                    </mxGeometry>
                </mxCell>
                <mxCell id="Che68PsUWc2DVUJd55eW-366" value="T" style="text;html=1;strokeColor=none;fillColor=none;align=center;verticalAlign=middle;whiteSpace=wrap;rounded=0;fontSize=19;" vertex="1" parent="mvioNwK95yMqdUQ73LqQ-36">
                    <mxGeometry x="60" y="2730" width="60" height="30" as="geometry"/>
                </mxCell>
                <mxCell id="Che68PsUWc2DVUJd55eW-371" value="" style="edgeStyle=none;html=1;fontSize=18;" edge="1" parent="mvioNwK95yMqdUQ73LqQ-36" source="Che68PsUWc2DVUJd55eW-368" target="Che68PsUWc2DVUJd55eW-370">
                    <mxGeometry relative="1" as="geometry"/>
                </mxCell>
                <mxCell id="Che68PsUWc2DVUJd55eW-368" value="&lt;span style=&quot;font-size: 18px;&quot;&gt;แจ้งให้ทราบ&lt;/span&gt;" style="whiteSpace=wrap;html=1;fontSize=13;" vertex="1" parent="mvioNwK95yMqdUQ73LqQ-36">
                    <mxGeometry x="660" y="1490" width="120" height="60" as="geometry"/>
                </mxCell>
                <mxCell id="Che68PsUWc2DVUJd55eW-370" value="คืนเงิน" style="whiteSpace=wrap;html=1;fontSize=18;" vertex="1" parent="mvioNwK95yMqdUQ73LqQ-36">
                    <mxGeometry x="660" y="1720" width="120" height="60" as="geometry"/>
                </mxCell>
                <mxCell id="Che68PsUWc2DVUJd55eW-372" value="F" style="text;html=1;strokeColor=none;fillColor=none;align=center;verticalAlign=middle;whiteSpace=wrap;rounded=0;fontSize=18;" vertex="1" parent="mvioNwK95yMqdUQ73LqQ-36">
                    <mxGeometry x="501" y="1360" width="60" height="30" as="geometry"/>
                </mxCell>
                <mxCell id="Che68PsUWc2DVUJd55eW-375" value="รับสินค้า" style="whiteSpace=wrap;html=1;fontSize=19;rounded=0;" vertex="1" parent="mvioNwK95yMqdUQ73LqQ-36">
                    <mxGeometry x="30" y="2900" width="120" height="60" as="geometry"/>
                </mxCell>
                <mxCell id="Che68PsUWc2DVUJd55eW-379" value="" style="strokeWidth=2;html=1;shape=mxgraph.flowchart.start_2;whiteSpace=wrap;" vertex="1" parent="mvioNwK95yMqdUQ73LqQ-36">
                    <mxGeometry x="620" y="3010" width="20" height="20" as="geometry"/>
                </mxCell>
                <mxCell id="Che68PsUWc2DVUJd55eW-380" value="" style="endArrow=classic;html=1;fontSize=18;exitX=0.5;exitY=1;exitDx=0;exitDy=0;entryX=0.5;entryY=0;entryDx=0;entryDy=0;entryPerimeter=0;" edge="1" parent="mvioNwK95yMqdUQ73LqQ-36" source="Che68PsUWc2DVUJd55eW-306" target="Che68PsUWc2DVUJd55eW-379">
                    <mxGeometry width="50" height="50" relative="1" as="geometry">
                        <mxPoint x="400" y="1500" as="sourcePoint"/>
                        <mxPoint x="630" y="2950" as="targetPoint"/>
                    </mxGeometry>
                </mxCell>
                <mxCell id="Che68PsUWc2DVUJd55eW-381" value="" style="endArrow=classic;html=1;fontSize=18;exitX=0.5;exitY=1;exitDx=0;exitDy=0;entryX=0;entryY=0.5;entryDx=0;entryDy=0;entryPerimeter=0;" edge="1" parent="mvioNwK95yMqdUQ73LqQ-36" source="Che68PsUWc2DVUJd55eW-375" target="Che68PsUWc2DVUJd55eW-379">
                    <mxGeometry width="50" height="50" relative="1" as="geometry">
                        <mxPoint x="400" y="2900" as="sourcePoint"/>
                        <mxPoint x="450" y="2850" as="targetPoint"/>
                        <Array as="points">
                            <mxPoint x="90" y="3020"/>
                        </Array>
                    </mxGeometry>
                </mxCell>
                <mxCell id="Che68PsUWc2DVUJd55eW-382" value="" style="endArrow=classic;html=1;fontSize=18;exitX=0.5;exitY=1;exitDx=0;exitDy=0;entryX=1;entryY=0.5;entryDx=0;entryDy=0;entryPerimeter=0;" edge="1" parent="mvioNwK95yMqdUQ73LqQ-36" source="Che68PsUWc2DVUJd55eW-370" target="Che68PsUWc2DVUJd55eW-379">
                    <mxGeometry width="50" height="50" relative="1" as="geometry">
                        <mxPoint x="400" y="1900" as="sourcePoint"/>
                        <mxPoint x="720" y="3030" as="targetPoint"/>
                        <Array as="points">
                            <mxPoint x="720" y="3020"/>
                        </Array>
                    </mxGeometry>
                </mxCell>
                <mxCell id="Che68PsUWc2DVUJd55eW-384" value="แจ้งให้แอดมินทราบ" style="whiteSpace=wrap;html=1;strokeWidth=2;fontSize=18;" vertex="1" parent="mvioNwK95yMqdUQ73LqQ-36">
                    <mxGeometry x="550" y="3080" width="160" height="60" as="geometry"/>
                </mxCell>
                <mxCell id="Che68PsUWc2DVUJd55eW-385" value="" style="endArrow=classic;html=1;fontSize=18;exitX=0.5;exitY=1;exitDx=0;exitDy=0;exitPerimeter=0;entryX=0.5;entryY=0;entryDx=0;entryDy=0;" edge="1" parent="mvioNwK95yMqdUQ73LqQ-36" source="Che68PsUWc2DVUJd55eW-379" target="Che68PsUWc2DVUJd55eW-384">
                    <mxGeometry width="50" height="50" relative="1" as="geometry">
                        <mxPoint x="400" y="3140" as="sourcePoint"/>
                        <mxPoint x="450" y="3090" as="targetPoint"/>
                    </mxGeometry>
                </mxCell>
                <mxCell id="Che68PsUWc2DVUJd55eW-386" value="" style="endArrow=classic;html=1;fontSize=18;exitX=0.5;exitY=1;exitDx=0;exitDy=0;entryX=0.5;entryY=0;entryDx=0;entryDy=0;" edge="1" parent="mvioNwK95yMqdUQ73LqQ-36" source="Che68PsUWc2DVUJd55eW-384" target="mvioNwK95yMqdUQ73LqQ-69">
                    <mxGeometry width="50" height="50" relative="1" as="geometry">
                        <mxPoint x="400" y="3140" as="sourcePoint"/>
                        <mxPoint x="450" y="3090" as="targetPoint"/>
                    </mxGeometry>
                </mxCell>
                <mxCell id="mvioNwK95yMqdUQ73LqQ-70" value="&lt;font data-font-src=&quot;https://fonts.googleapis.com/css?family=Sarabun&quot; face=&quot;Sarabun&quot;&gt;โจทย์ปัญหา&lt;/font&gt;" style="swimlane;whiteSpace=wrap;html=1;" parent="WIyWlLk6GJQsqaUBKTNV-1" vertex="1">
                    <mxGeometry x="-720" y="320" width="645" height="310" as="geometry"/>
                </mxCell>
                <mxCell id="mvioNwK95yMqdUQ73LqQ-71" value="&lt;p style=&quot;line-height: 120%;&quot;&gt;&lt;font data-font-src=&quot;https://fonts.googleapis.com/css?family=Sarabun&quot; face=&quot;Sarabun&quot; style=&quot;font-size: 14px;&quot;&gt;&lt;b&gt;&lt;u&gt;โจทย์&lt;/u&gt;&lt;/b&gt; จงเขียน Flowchart เพื่อแสดงขั้นตอนการทำงาน ของเครื่องขายน้ำอัตโนมัติ โดยเครื่องมีการทำงานดังนี้&lt;br&gt;&amp;nbsp; &amp;nbsp; - เครื่องมีสินค้าประเภท &quot;เครื่องดื่ม&quot; อยู่ 3 อย่างคือ กาแฟอเมริกาโน่ร้อน , ลาเต้เย็น , น้ำเปล่า&lt;br&gt;&amp;nbsp; &amp;nbsp; - เครื่องมีสินค้าประเภท &quot;ขนม&quot; อยู่ 3 อย่างคือ ขนมชั้น, ฝอยทอง, ลำไยอบแห้ง&lt;br&gt;&amp;nbsp; &amp;nbsp; - เครื่องสามารถทอนเงินลูกค้าได้ทั้ง เหรียญ และ ธนบัตร (โดยจะต้องเลือกทอนเงินด้วยธนบัตรใหญ่ก่อน)&lt;br&gt;&lt;/font&gt;&lt;span style=&quot;font-family: Sarabun; background-color: initial;&quot;&gt;&amp;nbsp; &amp;nbsp; &amp;nbsp; &amp;nbsp;กรณีที่มีเงินทอนไม่พอ ให้แจ้งลูกค้าก่อนซื้อสินค้าว่า &quot;เครื่องไม่มีเงิน&quot;&lt;br&gt;&amp;nbsp; &amp;nbsp; -&amp;nbsp; เครื่องสามารถแสดงจำนวนสินค้าคงเหลือ ราคาสินค้า จำนวนสินค้าที่ลูกค้าสั่ง และรวมราคาที่ลูกค้าต้องจ่าย&lt;br&gt;&lt;/span&gt;&lt;span style=&quot;font-family: Sarabun; background-color: initial;&quot;&gt;&lt;b&gt;&lt;u&gt;เหตุการณ์&lt;/u&gt;&lt;/b&gt;&lt;br&gt;&amp;nbsp; &amp;nbsp; &lt;b&gt;ลูกค้า&lt;/b&gt;สามารถเลือกสินค้ากี่ชิ้นก็ได้ จนกว่าลูกค้าจะพอใจ เมื่อพอใจแล้ว สามารถกดปุ่ม &quot;ตกลง&quot; เพื่อคำนวณ&lt;br&gt;ยอดเงินทั้งหมดที่ลูกค้าต้องชำระ และลูกค้าต้องใส่เงินไปตามจำนวน(หรือมากกว่า) เพื่อทำการชำระสินค้า&lt;br&gt;และตู้ก็จะทอนเงินให้ลูกค้า พร้อมส่งสินค้าให้ลูกค้า&lt;br&gt;&amp;nbsp; &amp;nbsp; &lt;b&gt;แอ็ดมิน&lt;/b&gt;สามารถได้รับการแจ้งเตือนทุกครั้งที่มีลูกค้ากดซื้อสินค้าหน้าตู้ โดยจะมีข้อมูลสรุปกำไรทั้งหมด จำนวน&lt;br&gt;เงินทอนคงเหลือ(ว่าเหลือแต่ละเหรียญและธนบัตรอยู่ทั้งหมดอย่างละเท่าไหร่)&lt;/span&gt;&lt;/p&gt;" style="text;html=1;align=left;verticalAlign=top;resizable=0;points=[];autosize=1;strokeColor=none;fillColor=none;fontSize=14;" parent="mvioNwK95yMqdUQ73LqQ-70" vertex="1">
                    <mxGeometry x="15" y="20" width="630" height="260" as="geometry"/>
                </mxCell>
                <mxCell id="Che68PsUWc2DVUJd55eW-314" value="" style="endArrow=classic;html=1;fontSize=19;exitX=1;exitY=0.5;exitDx=0;exitDy=0;" edge="1" parent="WIyWlLk6GJQsqaUBKTNV-1" source="67">
                    <mxGeometry width="50" height="50" relative="1" as="geometry">
                        <mxPoint x="80" y="1140" as="sourcePoint"/>
                        <mxPoint x="-170" y="1103" as="targetPoint"/>
                    </mxGeometry>
                </mxCell>
                <mxCell id="Che68PsUWc2DVUJd55eW-315" value="" style="endArrow=classic;html=1;fontSize=19;exitX=1;exitY=0.5;exitDx=0;exitDy=0;" edge="1" parent="WIyWlLk6GJQsqaUBKTNV-1" source="71">
                    <mxGeometry width="50" height="50" relative="1" as="geometry">
                        <mxPoint x="-170" y="1220" as="sourcePoint"/>
                        <mxPoint x="-170" y="1258" as="targetPoint"/>
                    </mxGeometry>
                </mxCell>
                <mxCell id="Che68PsUWc2DVUJd55eW-316" value="" style="endArrow=classic;html=1;fontSize=19;exitX=1;exitY=0.5;exitDx=0;exitDy=0;" edge="1" parent="WIyWlLk6GJQsqaUBKTNV-1" source="103">
                    <mxGeometry width="50" height="50" relative="1" as="geometry">
                        <mxPoint x="60" y="1140" as="sourcePoint"/>
                        <mxPoint x="290" y="1103" as="targetPoint"/>
                    </mxGeometry>
                </mxCell>
                <mxCell id="Che68PsUWc2DVUJd55eW-317" value="" style="endArrow=classic;html=1;fontSize=19;exitX=1;exitY=0.5;exitDx=0;exitDy=0;" edge="1" parent="WIyWlLk6GJQsqaUBKTNV-1" source="106">
                    <mxGeometry width="50" height="50" relative="1" as="geometry">
                        <mxPoint x="60" y="1220" as="sourcePoint"/>
                        <mxPoint x="290" y="1260" as="targetPoint"/>
                    </mxGeometry>
                </mxCell>
                <mxCell id="Che68PsUWc2DVUJd55eW-318" value="" style="endArrow=classic;html=1;fontSize=19;exitX=1;exitY=0.5;exitDx=0;exitDy=0;" edge="1" parent="WIyWlLk6GJQsqaUBKTNV-1" source="Che68PsUWc2DVUJd55eW-266">
                    <mxGeometry width="50" height="50" relative="1" as="geometry">
                        <mxPoint x="-560" y="2420" as="sourcePoint"/>
                        <mxPoint x="-240" y="2300" as="targetPoint"/>
                    </mxGeometry>
                </mxCell>
                <mxCell id="Che68PsUWc2DVUJd55eW-319" value="" style="endArrow=classic;html=1;fontSize=19;exitX=1;exitY=0.5;exitDx=0;exitDy=0;" edge="1" parent="WIyWlLk6GJQsqaUBKTNV-1" source="Che68PsUWc2DVUJd55eW-268">
                    <mxGeometry width="50" height="50" relative="1" as="geometry">
                        <mxPoint x="-560" y="2420" as="sourcePoint"/>
                        <mxPoint x="-240" y="2430" as="targetPoint"/>
                    </mxGeometry>
                </mxCell>
                <mxCell id="Che68PsUWc2DVUJd55eW-320" value="" style="endArrow=classic;html=1;fontSize=19;exitX=1;exitY=0.5;exitDx=0;exitDy=0;" edge="1" parent="WIyWlLk6GJQsqaUBKTNV-1" source="Che68PsUWc2DVUJd55eW-271">
                    <mxGeometry width="50" height="50" relative="1" as="geometry">
                        <mxPoint x="-560" y="2660" as="sourcePoint"/>
                        <mxPoint x="-240" y="2550" as="targetPoint"/>
                    </mxGeometry>
                </mxCell>
                <mxCell id="Che68PsUWc2DVUJd55eW-321" value="" style="endArrow=classic;html=1;fontSize=19;exitX=1;exitY=0.5;exitDx=0;exitDy=0;" edge="1" parent="WIyWlLk6GJQsqaUBKTNV-1" source="Che68PsUWc2DVUJd55eW-274">
                    <mxGeometry width="50" height="50" relative="1" as="geometry">
                        <mxPoint x="-560" y="2740" as="sourcePoint"/>
                        <mxPoint x="-240" y="2660" as="targetPoint"/>
                    </mxGeometry>
                </mxCell>
                <mxCell id="Che68PsUWc2DVUJd55eW-322" value="" style="endArrow=classic;html=1;fontSize=19;exitX=1;exitY=0.5;exitDx=0;exitDy=0;" edge="1" parent="WIyWlLk6GJQsqaUBKTNV-1" source="Che68PsUWc2DVUJd55eW-280">
                    <mxGeometry width="50" height="50" relative="1" as="geometry">
                        <mxPoint x="-560" y="2980" as="sourcePoint"/>
                        <mxPoint x="-240" y="2780" as="targetPoint"/>
                    </mxGeometry>
                </mxCell>
                <mxCell id="Che68PsUWc2DVUJd55eW-323" value="" style="endArrow=classic;html=1;fontSize=19;exitX=1;exitY=0.5;exitDx=0;exitDy=0;" edge="1" parent="WIyWlLk6GJQsqaUBKTNV-1" source="Che68PsUWc2DVUJd55eW-283">
                    <mxGeometry width="50" height="50" relative="1" as="geometry">
                        <mxPoint x="-560" y="2980" as="sourcePoint"/>
                        <mxPoint x="-240" y="2910" as="targetPoint"/>
                    </mxGeometry>
                </mxCell>
                <mxCell id="Che68PsUWc2DVUJd55eW-324" value="" style="endArrow=classic;html=1;fontSize=19;exitX=1;exitY=0.5;exitDx=0;exitDy=0;" edge="1" parent="WIyWlLk6GJQsqaUBKTNV-1" source="Che68PsUWc2DVUJd55eW-286">
                    <mxGeometry width="50" height="50" relative="1" as="geometry">
                        <mxPoint x="-560" y="3060" as="sourcePoint"/>
                        <mxPoint x="-240" y="3020" as="targetPoint"/>
                    </mxGeometry>
                </mxCell>
                <mxCell id="Che68PsUWc2DVUJd55eW-325" value="" style="endArrow=classic;html=1;fontSize=19;exitX=1;exitY=0.5;exitDx=0;exitDy=0;" edge="1" parent="WIyWlLk6GJQsqaUBKTNV-1" source="Che68PsUWc2DVUJd55eW-289">
                    <mxGeometry width="50" height="50" relative="1" as="geometry">
                        <mxPoint x="-560" y="3220" as="sourcePoint"/>
                        <mxPoint x="-240" y="3160" as="targetPoint"/>
                    </mxGeometry>
                </mxCell>
                <mxCell id="Che68PsUWc2DVUJd55eW-326" value="" style="endArrow=classic;html=1;fontSize=19;exitX=0.5;exitY=1;exitDx=0;exitDy=0;" edge="1" parent="WIyWlLk6GJQsqaUBKTNV-1" source="98">
                    <mxGeometry width="50" height="50" relative="1" as="geometry">
                        <mxPoint x="-60" y="1380" as="sourcePoint"/>
                        <mxPoint x="-110" y="1380" as="targetPoint"/>
                    </mxGeometry>
                </mxCell>
            </root>
        </mxGraphModel>
    </diagram>
    <diagram id="F4kzmzckM65KikhxYbUw" name="Page-2">
        <mxGraphModel dx="4008" dy="2252" grid="1" gridSize="10" guides="1" tooltips="1" connect="1" arrows="1" fold="1" page="1" pageScale="1" pageWidth="850" pageHeight="1100" math="0" shadow="0">
            <root>
                <mxCell id="0"/>
                <mxCell id="1" parent="0"/>
            </root>
        </mxGraphModel>
    </diagram>
</mxfile>